{
	"patcher" : 	{
		"fileversion" : 1,
		"appversion" : 		{
			"major" : 6,
			"minor" : 0,
			"revision" : 7
		}
,
		"rect" : [ 0.0, 44.0, 564.0, 480.0 ],
		"bglocked" : 0,
		"openinpresentation" : 1,
		"default_fontsize" : 11.595187,
		"default_fontface" : 0,
		"default_fontname" : "Arial",
		"gridonopen" : 0,
		"gridsize" : [ 15.0, 15.0 ],
		"gridsnaponopen" : 0,
		"statusbarvisible" : 2,
		"toolbarvisible" : 1,
		"boxanimatetime" : 200,
		"imprint" : 0,
		"enablehscroll" : 1,
		"enablevscroll" : 1,
		"devicewidth" : 0.0,
		"description" : "",
		"digest" : "",
		"tags" : "",
		"boxes" : [ 			{
				"box" : 				{
					"fontname" : "Arial",
					"fontsize" : 11.595187,
					"id" : "obj-18",
					"maxclass" : "newobj",
					"numinlets" : 1,
					"numoutlets" : 0,
					"patcher" : 					{
						"fileversion" : 1,
						"appversion" : 						{
							"major" : 6,
							"minor" : 0,
							"revision" : 7
						}
,
						"rect" : [ 208.0, 74.0, 640.0, 480.0 ],
						"bglocked" : 0,
						"openinpresentation" : 0,
						"default_fontsize" : 12.0,
						"default_fontface" : 0,
						"default_fontname" : "Arial",
						"gridonopen" : 0,
						"gridsize" : [ 15.0, 15.0 ],
						"gridsnaponopen" : 0,
						"statusbarvisible" : 2,
						"toolbarvisible" : 1,
						"boxanimatetime" : 200,
						"imprint" : 0,
						"enablehscroll" : 1,
						"enablevscroll" : 1,
						"devicewidth" : 0.0,
						"description" : "",
						"digest" : "",
						"tags" : "",
						"visible" : 1,
						"boxes" : [ 							{
								"box" : 								{
									"fontname" : "Arial",
									"fontsize" : 11.595187,
									"id" : "obj-1",
									"maxclass" : "newobj",
									"numinlets" : 1,
									"numoutlets" : 2,
									"outlettype" : [ "bang", "" ],
									"patching_rect" : [ 50.5, 100.0, 32.5, 19.0 ],
									"text" : "t b l"
								}

							}
, 							{
								"box" : 								{
									"id" : "obj-76",
									"maxclass" : "button",
									"numinlets" : 1,
									"numoutlets" : 1,
									"outlettype" : [ "bang" ],
									"patching_rect" : [ 50.5, 129.0, 20.0, 20.0 ]
								}

							}
, 							{
								"box" : 								{
									"fontname" : "Verdana",
									"fontsize" : 10.0,
									"id" : "obj-60",
									"linecount" : 3,
									"maxclass" : "message",
									"numinlets" : 2,
									"numoutlets" : 1,
									"outlettype" : [ "" ],
									"patching_rect" : [ 50.0, 277.0, 120.0, 41.0 ],
									"text" : "exportimage 2012-12-11T19-44-51 tiff"
								}

							}
, 							{
								"box" : 								{
									"fontname" : "Verdana",
									"fontsize" : 10.0,
									"id" : "obj-67",
									"maxclass" : "newobj",
									"numinlets" : 1,
									"numoutlets" : 1,
									"outlettype" : [ "" ],
									"patching_rect" : [ 50.0, 181.0, 174.0, 19.0 ],
									"text" : "sprintf exportimage %s tiff"
								}

							}
, 							{
								"box" : 								{
									"color" : [ 0.619608, 0.0, 0.360784, 0.698039 ],
									"fontname" : "Verdana",
									"fontsize" : 10.0,
									"id" : "obj-68",
									"maxclass" : "newobj",
									"numinlets" : 1,
									"numoutlets" : 1,
									"outlettype" : [ "" ],
									"patching_rect" : [ 50.0, 156.0, 103.0, 19.0 ],
									"text" : "jcom.datetime 2"
								}

							}
, 							{
								"box" : 								{
									"fontname" : "Verdana",
									"fontsize" : 10.0,
									"id" : "obj-77",
									"maxclass" : "newobj",
									"numinlets" : 1,
									"numoutlets" : 2,
									"outlettype" : [ "jit_matrix", "" ],
									"patching_rect" : [ 50.0, 243.0, 109.0, 19.0 ],
									"text" : "jit.matrix @adapt 1"
								}

							}
, 							{
								"box" : 								{
									"comment" : "",
									"id" : "obj-17",
									"maxclass" : "inlet",
									"numinlets" : 0,
									"numoutlets" : 1,
									"outlettype" : [ "jit_matrix" ],
									"patching_rect" : [ 50.5, 40.0, 25.0, 25.0 ]
								}

							}
 ],
						"lines" : [ 							{
								"patchline" : 								{
									"destination" : [ "obj-76", 0 ],
									"disabled" : 0,
									"hidden" : 0,
									"source" : [ "obj-1", 0 ]
								}

							}
, 							{
								"patchline" : 								{
									"destination" : [ "obj-77", 0 ],
									"disabled" : 0,
									"hidden" : 0,
									"midpoints" : [ 73.5, 128.0, 224.5, 128.0, 224.5, 228.0, 59.5, 228.0 ],
									"source" : [ "obj-1", 1 ]
								}

							}
, 							{
								"patchline" : 								{
									"destination" : [ "obj-1", 0 ],
									"disabled" : 0,
									"hidden" : 0,
									"source" : [ "obj-17", 0 ]
								}

							}
, 							{
								"patchline" : 								{
									"destination" : [ "obj-60", 1 ],
									"disabled" : 0,
									"hidden" : 0,
									"midpoints" : [ 59.5, 210.5, 160.5, 210.5 ],
									"source" : [ "obj-67", 0 ]
								}

							}
, 							{
								"patchline" : 								{
									"destination" : [ "obj-77", 0 ],
									"disabled" : 0,
									"hidden" : 0,
									"source" : [ "obj-67", 0 ]
								}

							}
, 							{
								"patchline" : 								{
									"destination" : [ "obj-67", 0 ],
									"disabled" : 0,
									"hidden" : 0,
									"source" : [ "obj-68", 0 ]
								}

							}
, 							{
								"patchline" : 								{
									"destination" : [ "obj-68", 0 ],
									"disabled" : 0,
									"hidden" : 0,
									"source" : [ "obj-76", 0 ]
								}

							}
 ]
					}
,
					"patching_rect" : [ 67.0, 186.0, 77.0, 19.0 ],
					"saved_object_attributes" : 					{
						"default_fontface" : 0,
						"default_fontname" : "Arial",
						"default_fontsize" : 12.0,
						"description" : "",
						"digest" : "",
						"fontface" : 0,
						"fontname" : "Arial",
						"fontsize" : 12.0,
						"globalpatchername" : "",
						"tags" : ""
					}
,
					"text" : "p export-files"
				}

			}
, 			{
				"box" : 				{
					"id" : "obj-47",
					"maxclass" : "button",
					"numinlets" : 1,
					"numoutlets" : 1,
					"outlettype" : [ "bang" ],
					"patching_rect" : [ 109.0, 106.0, 20.0, 20.0 ]
				}

			}
, 			{
				"box" : 				{
					"fontname" : "Arial",
					"fontsize" : 11.595187,
					"id" : "obj-16",
					"maxclass" : "newobj",
					"numinlets" : 1,
					"numoutlets" : 0,
					"patching_rect" : [ 493.0, 52.0, 67.0, 19.0 ],
					"saved_object_attributes" : 					{
						"allwindowsactive" : 0,
						"audiosupport" : 1,
						"cantclosetoplevelpatchers" : 0,
						"database" : 0,
						"extensions" : 1,
						"midisupport" : 0,
						"noloadbangdefeating" : 0,
						"overdrive" : 0,
						"preffilename" : "Max 5 Preferences",
						"searchformissingfiles" : 1,
						"statusvisible" : 0,
						"usesearchpath" : 0
					}
,
					"text" : "standalone"
				}

			}
, 			{
				"box" : 				{
					"id" : "obj-96",
					"maxclass" : "jit.pwindow",
					"numinlets" : 1,
					"numoutlets" : 2,
					"outlettype" : [ "", "" ],
					"patching_rect" : [ 39.0, 211.0, 320.0, 240.0 ],
					"presentation" : 1,
					"presentation_rect" : [ 24.0, 64.0, 480.0, 360.0 ]
				}

			}
, 			{
				"box" : 				{
					"filename" : "jsui_texttoggle.js",
					"id" : "obj-48",
					"jsarguments" : [ "on", "off" ],
					"maxclass" : "jsui",
					"numinlets" : 1,
					"numoutlets" : 2,
					"outlettype" : [ "", "" ],
					"parameter_enable" : 0,
					"patching_rect" : [ 109.0, 30.0, 38.0, 19.0 ],
					"presentation" : 1,
					"presentation_rect" : [ 25.0, 32.0, 41.0, 23.0 ]
				}

			}
, 			{
				"box" : 				{
					"bgcolor" : [ 0.35294, 0.35294, 0.35294, 1.0 ],
					"id" : "obj-10",
					"maxclass" : "led",
					"numinlets" : 1,
					"numoutlets" : 1,
					"outlettype" : [ "int" ],
					"parameter_enable" : 0,
					"patching_rect" : [ 153.5, 106.0, 17.0, 17.0 ],
					"presentation" : 1,
					"presentation_rect" : [ 275.710632, 32.0, 17.0, 17.0 ]
				}

			}
, 			{
				"box" : 				{
					"fontname" : "Arial",
					"fontsize" : 11.595187,
					"id" : "obj-58",
					"maxclass" : "newobj",
					"numinlets" : 1,
					"numoutlets" : 1,
					"outlettype" : [ "bang" ],
					"patcher" : 					{
						"fileversion" : 1,
						"appversion" : 						{
							"major" : 6,
							"minor" : 0,
							"revision" : 7
						}
,
						"rect" : [ 330.0, 44.0, 223.0, 357.0 ],
						"bglocked" : 0,
						"openinpresentation" : 0,
						"default_fontsize" : 12.0,
						"default_fontface" : 0,
						"default_fontname" : "Arial",
						"gridonopen" : 0,
						"gridsize" : [ 15.0, 15.0 ],
						"gridsnaponopen" : 0,
						"statusbarvisible" : 2,
						"toolbarvisible" : 1,
						"boxanimatetime" : 200,
						"imprint" : 0,
						"enablehscroll" : 1,
						"enablevscroll" : 1,
						"devicewidth" : 0.0,
						"description" : "",
						"digest" : "",
						"tags" : "",
						"boxes" : [ 							{
								"box" : 								{
									"fontname" : "Arial",
									"fontsize" : 12.0,
									"id" : "obj-55",
									"maxclass" : "newobj",
									"numinlets" : 3,
									"numoutlets" : 3,
									"outlettype" : [ "bang", "bang", "" ],
									"patching_rect" : [ 50.0, 88.0, 46.0, 20.0 ],
									"text" : "sel 1 0"
								}

							}
, 							{
								"box" : 								{
									"fontname" : "Arial",
									"fontsize" : 12.0,
									"id" : "obj-1",
									"maxclass" : "message",
									"numinlets" : 2,
									"numoutlets" : 1,
									"outlettype" : [ "" ],
									"patching_rect" : [ 121.0, 128.0, 33.0, 18.0 ],
									"text" : "stop"
								}

							}
, 							{
								"box" : 								{
									"id" : "obj-10",
									"maxclass" : "toggle",
									"numinlets" : 1,
									"numoutlets" : 1,
									"outlettype" : [ "int" ],
									"parameter_enable" : 0,
									"patching_rect" : [ 50.0, 202.0, 20.0, 20.0 ]
								}

							}
, 							{
								"box" : 								{
									"fontname" : "Arial",
									"fontsize" : 12.0,
									"id" : "obj-16",
									"maxclass" : "newobj",
									"numinlets" : 1,
									"numoutlets" : 2,
									"outlettype" : [ "int", "close" ],
									"patching_rect" : [ 121.0, 163.0, 55.0, 20.0 ],
									"text" : "t 0 close"
								}

							}
, 							{
								"box" : 								{
									"fontname" : "Arial",
									"fontsize" : 12.0,
									"id" : "obj-47",
									"maxclass" : "message",
									"numinlets" : 2,
									"numoutlets" : 1,
									"outlettype" : [ "" ],
									"patching_rect" : [ 50.0, 128.0, 34.0, 18.0 ],
									"text" : "start"
								}

							}
, 							{
								"box" : 								{
									"fontname" : "Arial",
									"fontsize" : 12.0,
									"id" : "obj-48",
									"maxclass" : "newobj",
									"numinlets" : 2,
									"numoutlets" : 1,
									"outlettype" : [ "bang" ],
									"patching_rect" : [ 50.0, 230.0, 78.0, 20.0 ],
									"text" : "metro 60000"
								}

							}
, 							{
								"box" : 								{
									"fontname" : "Arial",
									"fontsize" : 12.0,
									"id" : "obj-53",
									"maxclass" : "newobj",
									"numinlets" : 1,
									"numoutlets" : 2,
									"outlettype" : [ "int", "open" ],
									"patching_rect" : [ 50.0, 163.0, 54.0, 20.0 ],
									"text" : "t 1 open"
								}

							}
, 							{
								"box" : 								{
									"comment" : "",
									"id" : "obj-56",
									"maxclass" : "inlet",
									"numinlets" : 0,
									"numoutlets" : 1,
									"outlettype" : [ "int" ],
									"patching_rect" : [ 50.0, 40.0, 25.0, 25.0 ]
								}

							}
, 							{
								"box" : 								{
									"comment" : "",
									"id" : "obj-57",
									"maxclass" : "outlet",
									"numinlets" : 1,
									"numoutlets" : 0,
									"patching_rect" : [ 50.0, 307.0, 25.0, 25.0 ]
								}

							}
 ],
						"lines" : [ 							{
								"patchline" : 								{
									"destination" : [ "obj-16", 0 ],
									"disabled" : 0,
									"hidden" : 0,
									"source" : [ "obj-1", 0 ]
								}

							}
, 							{
								"patchline" : 								{
									"destination" : [ "obj-48", 0 ],
									"disabled" : 0,
									"hidden" : 0,
									"source" : [ "obj-10", 0 ]
								}

							}
, 							{
								"patchline" : 								{
									"destination" : [ "obj-10", 0 ],
									"disabled" : 0,
									"hidden" : 0,
									"midpoints" : [ 130.5, 195.5, 59.5, 195.5 ],
									"source" : [ "obj-16", 0 ]
								}

							}
, 							{
								"patchline" : 								{
									"destination" : [ "obj-57", 0 ],
									"disabled" : 0,
									"hidden" : 0,
									"midpoints" : [ 166.5, 288.5, 59.5, 288.5 ],
									"source" : [ "obj-16", 1 ]
								}

							}
, 							{
								"patchline" : 								{
									"destination" : [ "obj-53", 0 ],
									"disabled" : 0,
									"hidden" : 0,
									"source" : [ "obj-47", 0 ]
								}

							}
, 							{
								"patchline" : 								{
									"destination" : [ "obj-57", 0 ],
									"disabled" : 0,
									"hidden" : 0,
									"source" : [ "obj-48", 0 ]
								}

							}
, 							{
								"patchline" : 								{
									"destination" : [ "obj-10", 0 ],
									"disabled" : 0,
									"hidden" : 0,
									"source" : [ "obj-53", 0 ]
								}

							}
, 							{
								"patchline" : 								{
									"destination" : [ "obj-57", 0 ],
									"disabled" : 0,
									"hidden" : 0,
									"midpoints" : [ 138.0, 216.0, 138.0, 280.0, 59.5, 280.0 ],
									"source" : [ "obj-53", 1 ]
								}

							}
, 							{
								"patchline" : 								{
									"destination" : [ "obj-1", 0 ],
									"disabled" : 0,
									"hidden" : 0,
									"midpoints" : [ 73.0, 117.5, 130.5, 117.5 ],
									"source" : [ "obj-55", 1 ]
								}

							}
, 							{
								"patchline" : 								{
									"destination" : [ "obj-47", 0 ],
									"disabled" : 0,
									"hidden" : 0,
									"source" : [ "obj-55", 0 ]
								}

							}
, 							{
								"patchline" : 								{
									"destination" : [ "obj-55", 0 ],
									"disabled" : 0,
									"hidden" : 0,
									"source" : [ "obj-56", 0 ]
								}

							}
 ]
					}
,
					"patching_rect" : [ 109.0, 75.0, 68.0, 19.0 ],
					"saved_object_attributes" : 					{
						"default_fontface" : 0,
						"default_fontname" : "Arial",
						"default_fontsize" : 12.0,
						"description" : "",
						"digest" : "",
						"fontface" : 0,
						"fontname" : "Arial",
						"fontsize" : 12.0,
						"globalpatchername" : "",
						"tags" : ""
					}
,
					"text" : "p start-stop"
				}

			}
, 			{
				"box" : 				{
					"id" : "obj-54",
					"maxclass" : "toggle",
					"numinlets" : 1,
					"numoutlets" : 1,
					"outlettype" : [ "int" ],
					"parameter_enable" : 0,
					"patching_rect" : [ 109.0, 52.0, 20.0, 20.0 ]
				}

			}
, 			{
				"box" : 				{
					"fontname" : "Arial",
					"fontsize" : 12.0,
					"id" : "obj-98",
					"maxclass" : "newobj",
					"numinlets" : 1,
					"numoutlets" : 0,
					"patching_rect" : [ 361.0, 680.0, 68.0, 20.0 ],
					"text" : "s to-qtgrab"
				}

			}
, 			{
				"box" : 				{
					"fontname" : "Arial",
					"fontsize" : 11.595187,
					"id" : "obj-49",
					"maxclass" : "newobj",
					"numinlets" : 1,
					"numoutlets" : 0,
					"patching_rect" : [ 307.0, 178.0, 33.0, 19.0 ],
					"text" : "print"
				}

			}
, 			{
				"box" : 				{
					"fontname" : "Arial",
					"fontsize" : 12.0,
					"id" : "obj-27",
					"maxclass" : "newobj",
					"numinlets" : 0,
					"numoutlets" : 1,
					"outlettype" : [ "" ],
					"patching_rect" : [ 41.0, 516.088074, 80.0, 20.0 ],
					"text" : "r from-qtgrab"
				}

			}
, 			{
				"box" : 				{
					"fontname" : "Arial",
					"fontsize" : 12.0,
					"id" : "obj-11",
					"maxclass" : "newobj",
					"numinlets" : 1,
					"numoutlets" : 0,
					"patching_rect" : [ 192.0, 708.088074, 68.0, 20.0 ],
					"text" : "s to-qtgrab"
				}

			}
, 			{
				"box" : 				{
					"fontname" : "Arial",
					"fontsize" : 11.595187,
					"id" : "obj-110",
					"maxclass" : "newobj",
					"numinlets" : 1,
					"numoutlets" : 1,
					"outlettype" : [ "bang" ],
					"patching_rect" : [ 773.0, 84.0, 58.0, 19.0 ],
					"text" : "loadbang"
				}

			}
, 			{
				"box" : 				{
					"fontname" : "Arial",
					"fontsize" : 11.595187,
					"id" : "obj-107",
					"maxclass" : "newobj",
					"numinlets" : 1,
					"numoutlets" : 0,
					"patching_rect" : [ 773.0, 161.165771, 66.0, 19.0 ],
					"text" : "s to-qtgrab"
				}

			}
, 			{
				"box" : 				{
					"fontname" : "Arial",
					"fontsize" : 11.595187,
					"id" : "obj-105",
					"maxclass" : "message",
					"numinlets" : 2,
					"numoutlets" : 1,
					"outlettype" : [ "" ],
					"patching_rect" : [ 773.0, 124.0, 66.0, 17.0 ],
					"text" : "getinputlist"
				}

			}
, 			{
				"box" : 				{
					"fontname" : "Arial",
					"fontsize" : 11.595187,
					"id" : "obj-106",
					"maxclass" : "message",
					"numinlets" : 2,
					"numoutlets" : 1,
					"outlettype" : [ "" ],
					"patching_rect" : [ 841.0, 124.0, 65.0, 17.0 ],
					"text" : "getvdevlist"
				}

			}
, 			{
				"box" : 				{
					"fontname" : "Arial",
					"fontsize" : 11.595187,
					"id" : "obj-3",
					"maxclass" : "newobj",
					"numinlets" : 1,
					"numoutlets" : 0,
					"patching_rect" : [ 350.0, 178.0, 79.0, 19.0 ],
					"text" : "s from-qtgrab"
				}

			}
, 			{
				"box" : 				{
					"fontname" : "Arial",
					"fontsize" : 11.595187,
					"id" : "obj-12",
					"maxclass" : "newobj",
					"numinlets" : 0,
					"numoutlets" : 1,
					"outlettype" : [ "" ],
					"patching_rect" : [ 18.0, 61.0, 64.0, 19.0 ],
					"text" : "r to-qtgrab"
				}

			}
, 			{
				"box" : 				{
					"fontname" : "Arial",
					"fontsize" : 11.595187,
					"id" : "obj-22",
					"maxclass" : "newobj",
					"numinlets" : 1,
					"numoutlets" : 1,
					"outlettype" : [ "clear" ],
					"patching_rect" : [ 287.0, 622.0, 40.0, 19.0 ],
					"text" : "t clear"
				}

			}
, 			{
				"box" : 				{
					"fontname" : "Arial",
					"fontsize" : 11.595187,
					"id" : "obj-23",
					"maxclass" : "message",
					"numinlets" : 2,
					"numoutlets" : 1,
					"outlettype" : [ "" ],
					"patching_rect" : [ 192.0, 680.0, 50.0, 17.0 ],
					"text" : "input $1"
				}

			}
, 			{
				"box" : 				{
					"fontname" : "Arial",
					"fontsize" : 11.595187,
					"id" : "obj-24",
					"items" : [ "Logitech Camera", ",", "FaceTime Camera (Built-in)" ],
					"maxclass" : "umenu",
					"numinlets" : 1,
					"numoutlets" : 3,
					"outlettype" : [ "int", "", "" ],
					"parameter_enable" : 0,
					"patching_rect" : [ 192.0, 653.0, 145.0, 19.0 ],
					"presentation" : 1,
					"presentation_rect" : [ 115.0, 32.0, 145.0, 19.0 ]
				}

			}
, 			{
				"box" : 				{
					"fontname" : "Arial",
					"fontsize" : 11.595187,
					"id" : "obj-25",
					"maxclass" : "newobj",
					"numinlets" : 1,
					"numoutlets" : 1,
					"outlettype" : [ "" ],
					"patching_rect" : [ 192.0, 622.0, 93.0, 19.0 ],
					"text" : "prepend append"
				}

			}
, 			{
				"box" : 				{
					"fontname" : "Arial",
					"fontsize" : 11.595187,
					"id" : "obj-26",
					"maxclass" : "newobj",
					"numinlets" : 1,
					"numoutlets" : 1,
					"outlettype" : [ "" ],
					"patching_rect" : [ 192.0, 593.0, 25.0, 19.0 ],
					"text" : "iter"
				}

			}
, 			{
				"box" : 				{
					"fontname" : "Arial",
					"fontsize" : 11.595187,
					"id" : "obj-31",
					"maxclass" : "newobj",
					"numinlets" : 5,
					"numoutlets" : 5,
					"outlettype" : [ "", "", "", "", "" ],
					"patching_rect" : [ 41.0, 541.0, 620.0, 19.0 ],
					"text" : "route vdevlist inputlist snddevlist sndinputlist"
				}

			}
, 			{
				"box" : 				{
					"fontname" : "Arial",
					"fontsize" : 11.595187,
					"id" : "obj-46",
					"maxclass" : "jit.fpsgui",
					"mode" : 3,
					"numinlets" : 1,
					"numoutlets" : 2,
					"outlettype" : [ "", "" ],
					"patching_rect" : [ 39.0, 457.0, 80.0, 34.0 ]
				}

			}
, 			{
				"box" : 				{
					"fontname" : "Arial",
					"fontsize" : 11.595187,
					"id" : "obj-69",
					"maxclass" : "message",
					"numinlets" : 2,
					"numoutlets" : 1,
					"outlettype" : [ "" ],
					"patching_rect" : [ 361.0, 649.911926, 48.0, 17.0 ],
					"text" : "settings"
				}

			}
, 			{
				"box" : 				{
					"fontname" : "Arial",
					"fontsize" : 11.595187,
					"id" : "obj-95",
					"maxclass" : "newobj",
					"numinlets" : 1,
					"numoutlets" : 2,
					"outlettype" : [ "jit_matrix", "" ],
					"patcher" : 					{
						"fileversion" : 1,
						"appversion" : 						{
							"major" : 6,
							"minor" : 0,
							"revision" : 7
						}
,
						"rect" : [ 475.0, 100.0, 640.0, 480.0 ],
						"bglocked" : 0,
						"openinpresentation" : 0,
						"default_fontsize" : 12.0,
						"default_fontface" : 0,
						"default_fontname" : "Arial",
						"gridonopen" : 0,
						"gridsize" : [ 15.0, 15.0 ],
						"gridsnaponopen" : 0,
						"statusbarvisible" : 2,
						"toolbarvisible" : 1,
						"boxanimatetime" : 200,
						"imprint" : 0,
						"enablehscroll" : 1,
						"enablevscroll" : 1,
						"devicewidth" : 0.0,
						"description" : "",
						"digest" : "",
						"tags" : "",
						"visible" : 1,
						"boxes" : [ 							{
								"box" : 								{
									"fontname" : "Arial",
									"fontsize" : 12.0,
									"id" : "obj-6",
									"maxclass" : "message",
									"numinlets" : 2,
									"numoutlets" : 1,
									"outlettype" : [ "" ],
									"patching_rect" : [ 139.0, 103.0, 38.0, 18.0 ],
									"text" : "open"
								}

							}
, 							{
								"box" : 								{
									"fontname" : "Arial",
									"fontsize" : 13.0,
									"id" : "obj-61",
									"maxclass" : "message",
									"numinlets" : 2,
									"numoutlets" : 1,
									"outlettype" : [ "" ],
									"patching_rect" : [ 210.0, 103.0, 74.0, 19.0 ],
									"text" : "getinputlist"
								}

							}
, 							{
								"box" : 								{
									"comment" : "",
									"id" : "obj-3",
									"maxclass" : "outlet",
									"numinlets" : 1,
									"numoutlets" : 0,
									"patching_rect" : [ 161.0, 322.0, 25.0, 25.0 ]
								}

							}
, 							{
								"box" : 								{
									"comment" : "",
									"id" : "obj-2",
									"maxclass" : "outlet",
									"numinlets" : 1,
									"numoutlets" : 0,
									"patching_rect" : [ 75.0, 322.0, 25.0, 25.0 ]
								}

							}
, 							{
								"box" : 								{
									"comment" : "",
									"id" : "obj-1",
									"maxclass" : "inlet",
									"numinlets" : 0,
									"numoutlets" : 1,
									"outlettype" : [ "bang" ],
									"patching_rect" : [ 75.0, 54.0, 25.0, 25.0 ]
								}

							}
, 							{
								"box" : 								{
									"fontname" : "Arial",
									"fontsize" : 9.0,
									"id" : "obj-9",
									"maxclass" : "newobj",
									"numinlets" : 1,
									"numoutlets" : 1,
									"outlettype" : [ "" ],
									"patcher" : 									{
										"fileversion" : 1,
										"appversion" : 										{
											"major" : 6,
											"minor" : 0,
											"revision" : 7
										}
,
										"rect" : [ 20.0, 74.0, 159.0, 173.0 ],
										"bglocked" : 0,
										"openinpresentation" : 0,
										"default_fontsize" : 10.0,
										"default_fontface" : 0,
										"default_fontname" : "Arial",
										"gridonopen" : 0,
										"gridsize" : [ 15.0, 15.0 ],
										"gridsnaponopen" : 0,
										"statusbarvisible" : 2,
										"toolbarvisible" : 1,
										"boxanimatetime" : 200,
										"imprint" : 0,
										"enablehscroll" : 1,
										"enablevscroll" : 1,
										"devicewidth" : 0.0,
										"description" : "",
										"digest" : "",
										"tags" : "",
										"boxes" : [ 											{
												"box" : 												{
													"comment" : "",
													"id" : "obj-1",
													"maxclass" : "outlet",
													"numinlets" : 1,
													"numoutlets" : 0,
													"patching_rect" : [ 34.0, 68.0, 15.0, 15.0 ]
												}

											}
, 											{
												"box" : 												{
													"comment" : "",
													"id" : "obj-2",
													"maxclass" : "inlet",
													"numinlets" : 0,
													"numoutlets" : 1,
													"outlettype" : [ "" ],
													"patching_rect" : [ 34.0, 39.0, 15.0, 15.0 ]
												}

											}
 ],
										"lines" : [ 											{
												"patchline" : 												{
													"destination" : [ "obj-1", 0 ],
													"disabled" : 0,
													"hidden" : 0,
													"source" : [ "obj-2", 0 ]
												}

											}
 ]
									}
,
									"patching_rect" : [ 161.0, 249.0, 43.0, 17.0 ],
									"saved_object_attributes" : 									{
										"default_fontface" : 0,
										"default_fontname" : "Arial",
										"default_fontsize" : 10.0,
										"description" : "",
										"digest" : "",
										"fontface" : 0,
										"fontname" : "Arial",
										"fontsize" : 10.0,
										"globalpatchername" : "",
										"tags" : ""
									}
,
									"text" : "p thru3",
									"varname" : "thru3"
								}

							}
, 							{
								"box" : 								{
									"fontname" : "Arial",
									"fontsize" : 9.0,
									"id" : "obj-10",
									"maxclass" : "newobj",
									"numinlets" : 1,
									"numoutlets" : 1,
									"outlettype" : [ "jit_matrix" ],
									"patcher" : 									{
										"fileversion" : 1,
										"appversion" : 										{
											"major" : 6,
											"minor" : 0,
											"revision" : 7
										}
,
										"rect" : [ 20.0, 74.0, 159.0, 173.0 ],
										"bglocked" : 0,
										"openinpresentation" : 0,
										"default_fontsize" : 10.0,
										"default_fontface" : 0,
										"default_fontname" : "Arial",
										"gridonopen" : 0,
										"gridsize" : [ 15.0, 15.0 ],
										"gridsnaponopen" : 0,
										"statusbarvisible" : 2,
										"toolbarvisible" : 1,
										"boxanimatetime" : 200,
										"imprint" : 0,
										"enablehscroll" : 1,
										"enablevscroll" : 1,
										"devicewidth" : 0.0,
										"description" : "",
										"digest" : "",
										"tags" : "",
										"boxes" : [ 											{
												"box" : 												{
													"comment" : "",
													"id" : "obj-1",
													"maxclass" : "outlet",
													"numinlets" : 1,
													"numoutlets" : 0,
													"patching_rect" : [ 34.0, 68.0, 15.0, 15.0 ]
												}

											}
, 											{
												"box" : 												{
													"comment" : "",
													"id" : "obj-2",
													"maxclass" : "inlet",
													"numinlets" : 0,
													"numoutlets" : 1,
													"outlettype" : [ "jit_matrix" ],
													"patching_rect" : [ 34.0, 39.0, 15.0, 15.0 ]
												}

											}
 ],
										"lines" : [ 											{
												"patchline" : 												{
													"destination" : [ "obj-1", 0 ],
													"disabled" : 0,
													"hidden" : 0,
													"source" : [ "obj-2", 0 ]
												}

											}
 ]
									}
,
									"patching_rect" : [ 75.0, 249.0, 39.0, 17.0 ],
									"saved_object_attributes" : 									{
										"default_fontface" : 0,
										"default_fontname" : "Arial",
										"default_fontsize" : 10.0,
										"description" : "",
										"digest" : "",
										"fontface" : 0,
										"fontname" : "Arial",
										"fontsize" : 10.0,
										"globalpatchername" : "",
										"tags" : ""
									}
,
									"text" : "p thru2",
									"varname" : "thru2"
								}

							}
, 							{
								"box" : 								{
									"fontname" : "Arial",
									"fontsize" : 9.0,
									"id" : "obj-30",
									"maxclass" : "newobj",
									"numinlets" : 1,
									"numoutlets" : 1,
									"outlettype" : [ "bang" ],
									"patcher" : 									{
										"fileversion" : 1,
										"appversion" : 										{
											"major" : 6,
											"minor" : 0,
											"revision" : 7
										}
,
										"rect" : [ 20.0, 74.0, 159.0, 173.0 ],
										"bglocked" : 0,
										"openinpresentation" : 0,
										"default_fontsize" : 10.0,
										"default_fontface" : 0,
										"default_fontname" : "Arial",
										"gridonopen" : 0,
										"gridsize" : [ 15.0, 15.0 ],
										"gridsnaponopen" : 0,
										"statusbarvisible" : 2,
										"toolbarvisible" : 1,
										"boxanimatetime" : 200,
										"imprint" : 0,
										"enablehscroll" : 1,
										"enablevscroll" : 1,
										"devicewidth" : 0.0,
										"description" : "",
										"digest" : "",
										"tags" : "",
										"boxes" : [ 											{
												"box" : 												{
													"comment" : "",
													"id" : "obj-1",
													"maxclass" : "outlet",
													"numinlets" : 1,
													"numoutlets" : 0,
													"patching_rect" : [ 34.0, 68.0, 15.0, 15.0 ]
												}

											}
, 											{
												"box" : 												{
													"comment" : "",
													"id" : "obj-2",
													"maxclass" : "inlet",
													"numinlets" : 0,
													"numoutlets" : 1,
													"outlettype" : [ "bang" ],
													"patching_rect" : [ 34.0, 39.0, 15.0, 15.0 ]
												}

											}
 ],
										"lines" : [ 											{
												"patchline" : 												{
													"destination" : [ "obj-1", 0 ],
													"disabled" : 0,
													"hidden" : 0,
													"source" : [ "obj-2", 0 ]
												}

											}
 ]
									}
,
									"patching_rect" : [ 75.0, 114.0, 43.0, 17.0 ],
									"saved_object_attributes" : 									{
										"default_fontface" : 0,
										"default_fontname" : "Arial",
										"default_fontsize" : 10.0,
										"description" : "",
										"digest" : "",
										"fontface" : 0,
										"fontname" : "Arial",
										"fontsize" : 10.0,
										"globalpatchername" : "",
										"tags" : ""
									}
,
									"text" : "p thru1",
									"varname" : "thru1"
								}

							}
, 							{
								"box" : 								{
									"fontname" : "Arial",
									"fontsize" : 20.0,
									"id" : "obj-4",
									"maxclass" : "newobj",
									"numinlets" : 1,
									"numoutlets" : 2,
									"outlettype" : [ "jit_matrix", "" ],
									"patching_rect" : [ 75.0, 168.0, 296.0, 29.0 ],
									"text" : "jit.qt.grab 1600 1200 @unique 1",
									"varname" : "grabber"
								}

							}
 ],
						"lines" : [ 							{
								"patchline" : 								{
									"destination" : [ "obj-30", 0 ],
									"disabled" : 0,
									"hidden" : 0,
									"source" : [ "obj-1", 0 ]
								}

							}
, 							{
								"patchline" : 								{
									"destination" : [ "obj-2", 0 ],
									"disabled" : 0,
									"hidden" : 0,
									"source" : [ "obj-10", 0 ]
								}

							}
, 							{
								"patchline" : 								{
									"destination" : [ "obj-4", 0 ],
									"disabled" : 0,
									"hidden" : 0,
									"source" : [ "obj-30", 0 ]
								}

							}
, 							{
								"patchline" : 								{
									"destination" : [ "obj-10", 0 ],
									"disabled" : 0,
									"hidden" : 0,
									"source" : [ "obj-4", 0 ]
								}

							}
, 							{
								"patchline" : 								{
									"destination" : [ "obj-9", 0 ],
									"disabled" : 0,
									"hidden" : 0,
									"source" : [ "obj-4", 1 ]
								}

							}
, 							{
								"patchline" : 								{
									"destination" : [ "obj-4", 0 ],
									"disabled" : 0,
									"hidden" : 0,
									"source" : [ "obj-6", 0 ]
								}

							}
, 							{
								"patchline" : 								{
									"destination" : [ "obj-4", 0 ],
									"disabled" : 0,
									"hidden" : 0,
									"source" : [ "obj-61", 0 ]
								}

							}
, 							{
								"patchline" : 								{
									"destination" : [ "obj-3", 0 ],
									"disabled" : 0,
									"hidden" : 0,
									"source" : [ "obj-9", 0 ]
								}

							}
 ]
					}
,
					"patching_rect" : [ 39.0, 147.0, 60.0, 19.0 ],
					"saved_object_attributes" : 					{
						"default_fontface" : 0,
						"default_fontname" : "Arial",
						"default_fontsize" : 12.0,
						"description" : "",
						"digest" : "",
						"fontface" : 0,
						"fontname" : "Arial",
						"fontsize" : 12.0,
						"globalpatchername" : "",
						"tags" : ""
					}
,
					"text" : "p grabber"
				}

			}
, 			{
				"box" : 				{
					"fontname" : "Arial",
					"fontsize" : 12.0,
					"id" : "obj-4",
					"maxclass" : "newobj",
					"numinlets" : 0,
					"numoutlets" : 1,
					"outlettype" : [ "" ],
					"patching_rect" : [ 1273.0, 407.088074, 45.0, 20.0 ],
					"text" : "r reset"
				}

			}
, 			{
				"box" : 				{
					"fontname" : "Arial",
					"fontsize" : 12.0,
					"id" : "obj-5",
					"maxclass" : "message",
					"numinlets" : 2,
					"numoutlets" : 1,
					"outlettype" : [ "" ],
					"patching_rect" : [ 1189.0, 345.397339, 43.0, 18.0 ],
					"text" : "set $1"
				}

			}
, 			{
				"box" : 				{
					"fontname" : "Arial",
					"fontsize" : 12.0,
					"id" : "obj-6",
					"maxclass" : "newobj",
					"numinlets" : 2,
					"numoutlets" : 2,
					"outlettype" : [ "", "" ],
					"patching_rect" : [ 1189.0, 320.088074, 84.0, 20.0 ],
					"text" : "route contrast"
				}

			}
, 			{
				"box" : 				{
					"fontname" : "Arial",
					"fontsize" : 12.0,
					"id" : "obj-63",
					"maxclass" : "newobj",
					"numinlets" : 0,
					"numoutlets" : 1,
					"outlettype" : [ "" ],
					"patching_rect" : [ 1189.0, 294.088074, 80.0, 20.0 ],
					"text" : "r from-qtgrab"
				}

			}
, 			{
				"box" : 				{
					"fontname" : "Arial",
					"fontsize" : 12.0,
					"id" : "obj-7",
					"maxclass" : "newobj",
					"numinlets" : 1,
					"numoutlets" : 0,
					"patching_rect" : [ 1189.0, 466.088074, 68.0, 20.0 ],
					"text" : "s to-qtgrab"
				}

			}
, 			{
				"box" : 				{
					"fontsize" : 12.0,
					"id" : "obj-8",
					"maxclass" : "jcom.textslider",
					"numinlets" : 1,
					"numoutlets" : 1,
					"outlettype" : [ "" ],
					"patching_rect" : [ 1189.0, 369.397339, 188.0, 20.0 ],
					"text" : "contrast"
				}

			}
, 			{
				"box" : 				{
					"fontname" : "Arial",
					"fontsize" : 12.0,
					"id" : "obj-9",
					"maxclass" : "message",
					"numinlets" : 2,
					"numoutlets" : 1,
					"outlettype" : [ "" ],
					"patching_rect" : [ 1273.109375, 433.376709, 70.0, 18.0 ],
					"text" : "getcontrast"
				}

			}
, 			{
				"box" : 				{
					"fontname" : "Arial",
					"fontsize" : 12.0,
					"id" : "obj-13",
					"maxclass" : "flonum",
					"numinlets" : 1,
					"numoutlets" : 2,
					"outlettype" : [ "float", "bang" ],
					"parameter_enable" : 0,
					"patching_rect" : [ 1189.0, 395.00766, 52.0, 20.0 ],
					"triscale" : 0.9
				}

			}
, 			{
				"box" : 				{
					"fontname" : "Arial",
					"fontsize" : 12.0,
					"id" : "obj-14",
					"maxclass" : "message",
					"numinlets" : 2,
					"numoutlets" : 1,
					"outlettype" : [ "" ],
					"patching_rect" : [ 1189.0, 433.376709, 70.0, 18.0 ],
					"text" : "contrast $1"
				}

			}
, 			{
				"box" : 				{
					"fontname" : "Arial",
					"fontsize" : 12.0,
					"id" : "obj-15",
					"maxclass" : "newobj",
					"numinlets" : 0,
					"numoutlets" : 1,
					"outlettype" : [ "" ],
					"patching_rect" : [ 853.0, 407.088074, 45.0, 20.0 ],
					"text" : "r reset"
				}

			}
, 			{
				"box" : 				{
					"fontname" : "Arial",
					"fontsize" : 12.0,
					"id" : "obj-19",
					"maxclass" : "newobj",
					"numinlets" : 1,
					"numoutlets" : 2,
					"outlettype" : [ "bang", "" ],
					"patching_rect" : [ 1407.0, 440.088074, 32.5, 20.0 ],
					"text" : "t b l"
				}

			}
, 			{
				"box" : 				{
					"fontname" : "Arial",
					"fontsize" : 11.595187,
					"id" : "obj-32",
					"maxclass" : "newobj",
					"numinlets" : 1,
					"numoutlets" : 0,
					"patching_rect" : [ 1462.106201, 469.088074, 66.0, 19.0 ],
					"text" : "s to-qtgrab"
				}

			}
, 			{
				"box" : 				{
					"fontname" : "Arial",
					"fontsize" : 12.0,
					"id" : "obj-33",
					"maxclass" : "newobj",
					"numinlets" : 1,
					"numoutlets" : 0,
					"patching_rect" : [ 1407.0, 469.088074, 47.0, 20.0 ],
					"text" : "s reset"
				}

			}
, 			{
				"box" : 				{
					"fontname" : "Arial",
					"fontsize" : 12.0,
					"id" : "obj-34",
					"maxclass" : "newobj",
					"numinlets" : 0,
					"numoutlets" : 1,
					"outlettype" : [ "" ],
					"patching_rect" : [ 1063.0, 407.088074, 45.0, 20.0 ],
					"text" : "r reset"
				}

			}
, 			{
				"box" : 				{
					"fontname" : "Arial",
					"fontsize" : 12.0,
					"id" : "obj-35",
					"maxclass" : "message",
					"numinlets" : 2,
					"numoutlets" : 1,
					"outlettype" : [ "" ],
					"patching_rect" : [ 979.0, 345.397339, 43.0, 18.0 ],
					"text" : "set $1"
				}

			}
, 			{
				"box" : 				{
					"fontname" : "Arial",
					"fontsize" : 12.0,
					"id" : "obj-36",
					"maxclass" : "newobj",
					"numinlets" : 2,
					"numoutlets" : 2,
					"outlettype" : [ "", "" ],
					"patching_rect" : [ 979.0, 320.088074, 94.0, 20.0 ],
					"text" : "route saturation"
				}

			}
, 			{
				"box" : 				{
					"fontname" : "Arial",
					"fontsize" : 12.0,
					"id" : "obj-37",
					"maxclass" : "newobj",
					"numinlets" : 0,
					"numoutlets" : 1,
					"outlettype" : [ "" ],
					"patching_rect" : [ 979.0, 294.088074, 80.0, 20.0 ],
					"text" : "r from-qtgrab"
				}

			}
, 			{
				"box" : 				{
					"fontname" : "Arial",
					"fontsize" : 12.0,
					"id" : "obj-38",
					"maxclass" : "message",
					"numinlets" : 2,
					"numoutlets" : 1,
					"outlettype" : [ "" ],
					"patching_rect" : [ 767.0, 345.397339, 43.0, 18.0 ],
					"text" : "set $1"
				}

			}
, 			{
				"box" : 				{
					"fontname" : "Arial",
					"fontsize" : 12.0,
					"id" : "obj-45",
					"maxclass" : "newobj",
					"numinlets" : 2,
					"numoutlets" : 2,
					"outlettype" : [ "", "" ],
					"patching_rect" : [ 767.0, 320.088074, 97.0, 20.0 ],
					"text" : "route brightness"
				}

			}
, 			{
				"box" : 				{
					"fontname" : "Arial",
					"fontsize" : 12.0,
					"id" : "obj-44",
					"maxclass" : "newobj",
					"numinlets" : 0,
					"numoutlets" : 1,
					"outlettype" : [ "" ],
					"patching_rect" : [ 767.0, 294.088074, 80.0, 20.0 ],
					"text" : "r from-qtgrab"
				}

			}
, 			{
				"box" : 				{
					"fontname" : "Arial",
					"fontsize" : 12.0,
					"id" : "obj-43",
					"maxclass" : "newobj",
					"numinlets" : 1,
					"numoutlets" : 0,
					"patching_rect" : [ 979.0, 466.088074, 68.0, 20.0 ],
					"text" : "s to-qtgrab"
				}

			}
, 			{
				"box" : 				{
					"fontname" : "Arial",
					"fontsize" : 12.0,
					"id" : "obj-42",
					"maxclass" : "newobj",
					"numinlets" : 1,
					"numoutlets" : 0,
					"patching_rect" : [ 767.0, 465.088074, 68.0, 20.0 ],
					"text" : "s to-qtgrab"
				}

			}
, 			{
				"box" : 				{
					"fontsize" : 12.0,
					"id" : "obj-41",
					"maxclass" : "jcom.textslider",
					"numinlets" : 1,
					"numoutlets" : 1,
					"outlettype" : [ "" ],
					"patching_rect" : [ 979.0, 369.397339, 188.0, 20.0 ],
					"text" : "saturation"
				}

			}
, 			{
				"box" : 				{
					"fontsize" : 12.0,
					"id" : "obj-40",
					"maxclass" : "jcom.textslider",
					"numinlets" : 1,
					"numoutlets" : 1,
					"outlettype" : [ "" ],
					"patching_rect" : [ 767.0, 369.397339, 185.0, 20.0 ],
					"text" : "brightness"
				}

			}
, 			{
				"box" : 				{
					"fontname" : "Arial",
					"fontsize" : 11.595187,
					"id" : "obj-39",
					"maxclass" : "message",
					"numinlets" : 2,
					"numoutlets" : 1,
					"outlettype" : [ "" ],
					"patching_rect" : [ 1406.710693, 417.397339, 51.0, 17.0 ],
					"text" : "defaults"
				}

			}
, 			{
				"box" : 				{
					"fontname" : "Arial",
					"fontsize" : 12.0,
					"id" : "obj-70",
					"maxclass" : "message",
					"numinlets" : 2,
					"numoutlets" : 1,
					"outlettype" : [ "" ],
					"patching_rect" : [ 1063.109375, 433.376709, 80.0, 18.0 ],
					"text" : "getsaturation"
				}

			}
, 			{
				"box" : 				{
					"fontname" : "Arial",
					"fontsize" : 12.0,
					"id" : "obj-71",
					"maxclass" : "flonum",
					"maximum" : 1.0,
					"minimum" : 0.0,
					"numinlets" : 1,
					"numoutlets" : 2,
					"outlettype" : [ "float", "bang" ],
					"parameter_enable" : 0,
					"patching_rect" : [ 979.0, 395.00766, 52.0, 20.0 ],
					"triscale" : 0.9
				}

			}
, 			{
				"box" : 				{
					"fontname" : "Arial",
					"fontsize" : 12.0,
					"id" : "obj-72",
					"maxclass" : "message",
					"numinlets" : 2,
					"numoutlets" : 1,
					"outlettype" : [ "" ],
					"patching_rect" : [ 979.0, 433.376709, 80.0, 18.0 ],
					"text" : "saturation $1"
				}

			}
, 			{
				"box" : 				{
					"fontname" : "Arial",
					"fontsize" : 12.0,
					"id" : "obj-73",
					"maxclass" : "message",
					"numinlets" : 2,
					"numoutlets" : 1,
					"outlettype" : [ "" ],
					"patching_rect" : [ 853.0, 433.376709, 83.0, 18.0 ],
					"text" : "getbrightness"
				}

			}
, 			{
				"box" : 				{
					"fontname" : "Arial",
					"fontsize" : 12.0,
					"id" : "obj-74",
					"maxclass" : "flonum",
					"maximum" : 1.0,
					"minimum" : 0.0,
					"numinlets" : 1,
					"numoutlets" : 2,
					"outlettype" : [ "float", "bang" ],
					"parameter_enable" : 0,
					"patching_rect" : [ 767.0, 395.00766, 52.0, 20.0 ],
					"triscale" : 0.9
				}

			}
, 			{
				"box" : 				{
					"fontname" : "Arial",
					"fontsize" : 12.0,
					"id" : "obj-75",
					"maxclass" : "message",
					"numinlets" : 2,
					"numoutlets" : 1,
					"outlettype" : [ "" ],
					"patching_rect" : [ 767.0, 433.376709, 83.0, 18.0 ],
					"text" : "brightness $1"
				}

			}
, 			{
				"box" : 				{
					"id" : "obj-2",
					"maxclass" : "panel",
					"numinlets" : 1,
					"numoutlets" : 0,
					"patching_rect" : [ 618.0, 265.0, 51.0, 44.0 ],
					"presentation" : 1,
					"presentation_rect" : [ 15.0, 11.0, 503.0, 430.0 ]
				}

			}
 ],
		"lines" : [ 			{
				"patchline" : 				{
					"destination" : [ "obj-107", 0 ],
					"disabled" : 0,
					"hidden" : 0,
					"midpoints" : [ 782.5, 151.082886, 782.5, 151.082886 ],
					"source" : [ "obj-105", 0 ]
				}

			}
, 			{
				"patchline" : 				{
					"destination" : [ "obj-107", 0 ],
					"disabled" : 0,
					"hidden" : 0,
					"midpoints" : [ 850.5, 151.082886, 782.5, 151.082886 ],
					"source" : [ "obj-106", 0 ]
				}

			}
, 			{
				"patchline" : 				{
					"destination" : [ "obj-105", 0 ],
					"disabled" : 0,
					"hidden" : 0,
					"source" : [ "obj-110", 0 ]
				}

			}
, 			{
				"patchline" : 				{
					"destination" : [ "obj-106", 0 ],
					"disabled" : 0,
					"hidden" : 0,
					"midpoints" : [ 782.5, 113.0, 850.5, 113.0 ],
					"source" : [ "obj-110", 0 ]
				}

			}
, 			{
				"patchline" : 				{
					"destination" : [ "obj-95", 0 ],
					"disabled" : 0,
					"hidden" : 0,
					"midpoints" : [ 27.5, 138.0, 48.5, 138.0 ],
					"source" : [ "obj-12", 0 ]
				}

			}
, 			{
				"patchline" : 				{
					"destination" : [ "obj-14", 0 ],
					"disabled" : 0,
					"hidden" : 0,
					"source" : [ "obj-13", 0 ]
				}

			}
, 			{
				"patchline" : 				{
					"destination" : [ "obj-7", 0 ],
					"disabled" : 0,
					"hidden" : 0,
					"source" : [ "obj-14", 0 ]
				}

			}
, 			{
				"patchline" : 				{
					"destination" : [ "obj-73", 0 ],
					"disabled" : 0,
					"hidden" : 0,
					"source" : [ "obj-15", 0 ]
				}

			}
, 			{
				"patchline" : 				{
					"destination" : [ "obj-32", 0 ],
					"disabled" : 0,
					"hidden" : 0,
					"midpoints" : [ 1430.0, 464.088074, 1471.606201, 464.088074 ],
					"source" : [ "obj-19", 1 ]
				}

			}
, 			{
				"patchline" : 				{
					"destination" : [ "obj-33", 0 ],
					"disabled" : 0,
					"hidden" : 0,
					"source" : [ "obj-19", 0 ]
				}

			}
, 			{
				"patchline" : 				{
					"destination" : [ "obj-24", 0 ],
					"disabled" : 0,
					"hidden" : 0,
					"midpoints" : [ 296.5, 649.0, 201.5, 649.0 ],
					"source" : [ "obj-22", 0 ]
				}

			}
, 			{
				"patchline" : 				{
					"destination" : [ "obj-11", 0 ],
					"disabled" : 0,
					"hidden" : 0,
					"midpoints" : [ 201.5, 706.044067, 201.5, 706.044067 ],
					"source" : [ "obj-23", 0 ]
				}

			}
, 			{
				"patchline" : 				{
					"destination" : [ "obj-23", 0 ],
					"disabled" : 0,
					"hidden" : 0,
					"source" : [ "obj-24", 0 ]
				}

			}
, 			{
				"patchline" : 				{
					"destination" : [ "obj-24", 0 ],
					"disabled" : 0,
					"hidden" : 0,
					"source" : [ "obj-25", 0 ]
				}

			}
, 			{
				"patchline" : 				{
					"destination" : [ "obj-25", 0 ],
					"disabled" : 0,
					"hidden" : 0,
					"source" : [ "obj-26", 0 ]
				}

			}
, 			{
				"patchline" : 				{
					"destination" : [ "obj-31", 0 ],
					"disabled" : 0,
					"hidden" : 0,
					"source" : [ "obj-27", 0 ]
				}

			}
, 			{
				"patchline" : 				{
					"destination" : [ "obj-22", 0 ],
					"disabled" : 0,
					"hidden" : 0,
					"midpoints" : [ 296.5, 582.0 ],
					"source" : [ "obj-31", 1 ]
				}

			}
, 			{
				"patchline" : 				{
					"destination" : [ "obj-26", 0 ],
					"disabled" : 0,
					"hidden" : 0,
					"midpoints" : [ 200.75, 576.5, 201.5, 576.5 ],
					"source" : [ "obj-31", 1 ]
				}

			}
, 			{
				"patchline" : 				{
					"destination" : [ "obj-70", 0 ],
					"disabled" : 0,
					"hidden" : 0,
					"source" : [ "obj-34", 0 ]
				}

			}
, 			{
				"patchline" : 				{
					"destination" : [ "obj-41", 0 ],
					"disabled" : 0,
					"hidden" : 0,
					"source" : [ "obj-35", 0 ]
				}

			}
, 			{
				"patchline" : 				{
					"destination" : [ "obj-35", 0 ],
					"disabled" : 0,
					"hidden" : 0,
					"source" : [ "obj-36", 0 ]
				}

			}
, 			{
				"patchline" : 				{
					"destination" : [ "obj-36", 0 ],
					"disabled" : 0,
					"hidden" : 0,
					"source" : [ "obj-37", 0 ]
				}

			}
, 			{
				"patchline" : 				{
					"destination" : [ "obj-40", 0 ],
					"disabled" : 0,
					"hidden" : 0,
					"source" : [ "obj-38", 0 ]
				}

			}
, 			{
				"patchline" : 				{
					"destination" : [ "obj-19", 0 ],
					"disabled" : 0,
					"hidden" : 0,
					"source" : [ "obj-39", 0 ]
				}

			}
, 			{
				"patchline" : 				{
					"destination" : [ "obj-9", 0 ],
					"disabled" : 0,
					"hidden" : 0,
					"source" : [ "obj-4", 0 ]
				}

			}
, 			{
				"patchline" : 				{
					"destination" : [ "obj-74", 0 ],
					"disabled" : 0,
					"hidden" : 0,
					"source" : [ "obj-40", 0 ]
				}

			}
, 			{
				"patchline" : 				{
					"destination" : [ "obj-71", 0 ],
					"disabled" : 0,
					"hidden" : 0,
					"source" : [ "obj-41", 0 ]
				}

			}
, 			{
				"patchline" : 				{
					"destination" : [ "obj-45", 0 ],
					"disabled" : 0,
					"hidden" : 0,
					"source" : [ "obj-44", 0 ]
				}

			}
, 			{
				"patchline" : 				{
					"destination" : [ "obj-38", 0 ],
					"disabled" : 0,
					"hidden" : 0,
					"source" : [ "obj-45", 0 ]
				}

			}
, 			{
				"patchline" : 				{
					"destination" : [ "obj-95", 0 ],
					"disabled" : 0,
					"hidden" : 0,
					"source" : [ "obj-47", 0 ]
				}

			}
, 			{
				"patchline" : 				{
					"destination" : [ "obj-54", 0 ],
					"disabled" : 0,
					"hidden" : 0,
					"source" : [ "obj-48", 0 ]
				}

			}
, 			{
				"patchline" : 				{
					"destination" : [ "obj-8", 0 ],
					"disabled" : 0,
					"hidden" : 0,
					"source" : [ "obj-5", 0 ]
				}

			}
, 			{
				"patchline" : 				{
					"destination" : [ "obj-58", 0 ],
					"disabled" : 0,
					"hidden" : 0,
					"source" : [ "obj-54", 0 ]
				}

			}
, 			{
				"patchline" : 				{
					"destination" : [ "obj-10", 0 ],
					"disabled" : 0,
					"hidden" : 0,
					"source" : [ "obj-58", 0 ]
				}

			}
, 			{
				"patchline" : 				{
					"destination" : [ "obj-47", 0 ],
					"disabled" : 0,
					"hidden" : 0,
					"midpoints" : [ 118.5, 101.0, 118.5, 101.0 ],
					"source" : [ "obj-58", 0 ]
				}

			}
, 			{
				"patchline" : 				{
					"destination" : [ "obj-5", 0 ],
					"disabled" : 0,
					"hidden" : 0,
					"source" : [ "obj-6", 0 ]
				}

			}
, 			{
				"patchline" : 				{
					"destination" : [ "obj-6", 0 ],
					"disabled" : 0,
					"hidden" : 0,
					"source" : [ "obj-63", 0 ]
				}

			}
, 			{
				"patchline" : 				{
					"destination" : [ "obj-98", 0 ],
					"disabled" : 0,
					"hidden" : 0,
					"source" : [ "obj-69", 0 ]
				}

			}
, 			{
				"patchline" : 				{
					"destination" : [ "obj-43", 0 ],
					"disabled" : 0,
					"hidden" : 0,
					"midpoints" : [ 1072.609375, 458.232422, 988.5, 458.232422 ],
					"source" : [ "obj-70", 0 ]
				}

			}
, 			{
				"patchline" : 				{
					"destination" : [ "obj-72", 0 ],
					"disabled" : 0,
					"hidden" : 0,
					"source" : [ "obj-71", 0 ]
				}

			}
, 			{
				"patchline" : 				{
					"destination" : [ "obj-43", 0 ],
					"disabled" : 0,
					"hidden" : 0,
					"source" : [ "obj-72", 0 ]
				}

			}
, 			{
				"patchline" : 				{
					"destination" : [ "obj-42", 0 ],
					"disabled" : 0,
					"hidden" : 0,
					"midpoints" : [ 862.5, 457.732422, 776.5, 457.732422 ],
					"source" : [ "obj-73", 0 ]
				}

			}
, 			{
				"patchline" : 				{
					"destination" : [ "obj-75", 0 ],
					"disabled" : 0,
					"hidden" : 0,
					"source" : [ "obj-74", 0 ]
				}

			}
, 			{
				"patchline" : 				{
					"destination" : [ "obj-42", 0 ],
					"disabled" : 0,
					"hidden" : 0,
					"source" : [ "obj-75", 0 ]
				}

			}
, 			{
				"patchline" : 				{
					"destination" : [ "obj-13", 0 ],
					"disabled" : 0,
					"hidden" : 0,
					"source" : [ "obj-8", 0 ]
				}

			}
, 			{
				"patchline" : 				{
					"destination" : [ "obj-7", 0 ],
					"disabled" : 0,
					"hidden" : 0,
					"midpoints" : [ 1282.609375, 458.232422, 1198.5, 458.232422 ],
					"source" : [ "obj-9", 0 ]
				}

			}
, 			{
				"patchline" : 				{
					"destination" : [ "obj-18", 0 ],
					"disabled" : 0,
					"hidden" : 0,
					"source" : [ "obj-95", 0 ]
				}

			}
, 			{
				"patchline" : 				{
					"destination" : [ "obj-3", 0 ],
					"disabled" : 0,
					"hidden" : 0,
					"midpoints" : [ 89.5, 172.0, 359.5, 172.0 ],
					"source" : [ "obj-95", 1 ]
				}

			}
, 			{
				"patchline" : 				{
					"destination" : [ "obj-49", 0 ],
					"disabled" : 0,
					"hidden" : 0,
					"midpoints" : [ 89.5, 172.0, 316.5, 172.0 ],
					"source" : [ "obj-95", 1 ]
				}

			}
, 			{
				"patchline" : 				{
					"destination" : [ "obj-96", 0 ],
					"disabled" : 0,
					"hidden" : 0,
					"source" : [ "obj-95", 0 ]
				}

			}
, 			{
				"patchline" : 				{
					"destination" : [ "obj-46", 0 ],
					"disabled" : 0,
					"hidden" : 0,
					"source" : [ "obj-96", 0 ]
				}

			}
 ],
		"dependency_cache" : [ 			{
				"name" : "jsui_texttoggle.js",
				"bootpath" : "/Applications/Max6/Cycling '74/jsui-library",
				"patcherrelativepath" : "../../../../../../../../Applications/Max6/Cycling '74/jsui-library",
				"type" : "TEXT",
				"implicit" : 1
			}
, 			{
				"name" : "jcom.datetime.maxpat",
				"bootpath" : "/Applications/Max6/Cycling '74/Jamoma/library/components/datetime",
				"patcherrelativepath" : "../../../../../../../../Applications/Max6/Cycling '74/Jamoma/library/components/datetime",
				"type" : "JSON",
				"implicit" : 1
			}
, 			{
				"name" : "jcom.textslider.mxo",
				"type" : "iLaX"
			}
 ]
	}

}
