{
	"patcher" : 	{
		"fileversion" : 1,
		"appversion" : 		{
			"major" : 5,
			"minor" : 1,
			"revision" : 9
		}
,
		"rect" : [ 35.0, 44.0, 1061.0, 650.0 ],
		"bglocked" : 0,
		"defrect" : [ 35.0, 44.0, 1061.0, 650.0 ],
		"openrect" : [ 0.0, 0.0, 0.0, 0.0 ],
		"openinpresentation" : 1,
		"default_fontsize" : 11.595187,
		"default_fontface" : 0,
		"default_fontname" : "Arial",
		"gridonopen" : 0,
		"gridsize" : [ 15.0, 15.0 ],
		"gridsnaponopen" : 0,
		"toolbarvisible" : 1,
		"boxanimatetime" : 200,
		"imprint" : 0,
		"enablehscroll" : 1,
		"enablevscroll" : 1,
		"devicewidth" : 0.0,
		"boxes" : [ 			{
				"box" : 				{
					"maxclass" : "comment",
					"text" : "Lagrer fil:",
					"patching_rect" : [ 243.5, 81.0, 150.0, 20.0 ],
					"presentation" : 1,
					"id" : "obj-29",
					"fontname" : "Arial",
					"numinlets" : 1,
					"presentation_rect" : [ 65.0, 265.0, 59.0, 20.0 ],
					"numoutlets" : 0,
					"fontsize" : 11.595187
				}

			}
, 			{
				"box" : 				{
					"maxclass" : "message",
					"text" : "exportimage 2013-02-04T09-53-32 tiff",
					"presentation_linecount" : 3,
					"outlettype" : [ "" ],
					"patching_rect" : [ 243.5, 104.0, 205.0, 18.0 ],
					"presentation" : 1,
					"id" : "obj-21",
					"fontname" : "Arial",
					"numinlets" : 2,
					"presentation_rect" : [ 65.0, 301.0, 97.0, 44.0 ],
					"numoutlets" : 1,
					"fontsize" : 11.595187
				}

			}
, 			{
				"box" : 				{
					"maxclass" : "comment",
					"text" : "Trykk her",
					"patching_rect" : [ 58.0, 62.0, 150.0, 20.0 ],
					"presentation" : 1,
					"id" : "obj-17",
					"fontname" : "Arial",
					"numinlets" : 1,
					"presentation_rect" : [ 62.0, 105.0, 58.0, 20.0 ],
					"numoutlets" : 0,
					"fontsize" : 11.595187
				}

			}
, 			{
				"box" : 				{
					"maxclass" : "newobj",
					"text" : "p export-files",
					"outlettype" : [ "" ],
					"patching_rect" : [ 62.0, 143.0, 77.0, 20.0 ],
					"id" : "obj-18",
					"fontname" : "Arial",
					"numinlets" : 1,
					"numoutlets" : 1,
					"fontsize" : 11.595187,
					"patcher" : 					{
						"fileversion" : 1,
						"appversion" : 						{
							"major" : 5,
							"minor" : 1,
							"revision" : 9
						}
,
						"rect" : [ 208.0, 74.0, 422.0, 473.0 ],
						"bglocked" : 0,
						"defrect" : [ 208.0, 74.0, 422.0, 473.0 ],
						"openrect" : [ 0.0, 0.0, 0.0, 0.0 ],
						"openinpresentation" : 0,
						"default_fontsize" : 12.0,
						"default_fontface" : 0,
						"default_fontname" : "Arial",
						"gridonopen" : 0,
						"gridsize" : [ 15.0, 15.0 ],
						"gridsnaponopen" : 0,
						"toolbarvisible" : 1,
						"boxanimatetime" : 200,
						"imprint" : 0,
						"enablehscroll" : 1,
						"enablevscroll" : 1,
						"devicewidth" : 0.0,
						"boxes" : [ 							{
								"box" : 								{
									"maxclass" : "outlet",
									"patching_rect" : [ 250.0, 299.0, 25.0, 25.0 ],
									"id" : "obj-2",
									"numinlets" : 1,
									"numoutlets" : 0,
									"comment" : ""
								}

							}
, 							{
								"box" : 								{
									"maxclass" : "newobj",
									"text" : "t b l",
									"outlettype" : [ "bang", "" ],
									"patching_rect" : [ 50.5, 100.0, 32.5, 20.0 ],
									"id" : "obj-1",
									"fontname" : "Arial",
									"numinlets" : 1,
									"numoutlets" : 2,
									"fontsize" : 11.595187
								}

							}
, 							{
								"box" : 								{
									"maxclass" : "button",
									"outlettype" : [ "bang" ],
									"patching_rect" : [ 50.5, 129.0, 20.0, 20.0 ],
									"id" : "obj-76",
									"numinlets" : 1,
									"numoutlets" : 1
								}

							}
, 							{
								"box" : 								{
									"maxclass" : "message",
									"text" : "exportimage 2013-02-04T09-53-32 tiff",
									"linecount" : 3,
									"outlettype" : [ "" ],
									"patching_rect" : [ 50.5, 277.0, 120.0, 41.0 ],
									"id" : "obj-60",
									"fontname" : "Verdana",
									"numinlets" : 2,
									"numoutlets" : 1,
									"fontsize" : 10.0
								}

							}
, 							{
								"box" : 								{
									"maxclass" : "newobj",
									"text" : "sprintf exportimage %s tiff",
									"outlettype" : [ "" ],
									"patching_rect" : [ 50.5, 181.0, 174.0, 19.0 ],
									"id" : "obj-67",
									"fontname" : "Verdana",
									"numinlets" : 1,
									"numoutlets" : 1,
									"fontsize" : 10.0
								}

							}
, 							{
								"box" : 								{
									"maxclass" : "newobj",
									"text" : "p datetime",
									"outlettype" : [ "" ],
									"patching_rect" : [ 50.5, 156.0, 67.0, 20.0 ],
									"id" : "obj-68",
									"fontname" : "Arial",
									"numinlets" : 1,
									"numoutlets" : 1,
									"fontsize" : 12.0,
									"patcher" : 									{
										"fileversion" : 1,
										"appversion" : 										{
											"major" : 5,
											"minor" : 1,
											"revision" : 9
										}
,
										"rect" : [ 164.0, 44.0, 401.0, 474.0 ],
										"bglocked" : 0,
										"defrect" : [ 164.0, 44.0, 401.0, 474.0 ],
										"openrect" : [ 0.0, 0.0, 0.0, 0.0 ],
										"openinpresentation" : 0,
										"default_fontsize" : 12.0,
										"default_fontface" : 0,
										"default_fontname" : "Arial",
										"gridonopen" : 0,
										"gridsize" : [ 15.0, 15.0 ],
										"gridsnaponopen" : 0,
										"toolbarvisible" : 1,
										"boxanimatetime" : 200,
										"imprint" : 0,
										"enablehscroll" : 1,
										"enablevscroll" : 1,
										"devicewidth" : 0.0,
										"boxes" : [ 											{
												"box" : 												{
													"maxclass" : "button",
													"outlettype" : [ "bang" ],
													"patching_rect" : [ 90.0, 126.0, 20.0, 20.0 ],
													"id" : "obj-2",
													"numinlets" : 1,
													"numoutlets" : 1
												}

											}
, 											{
												"box" : 												{
													"maxclass" : "comment",
													"text" : "(YYYY-MM-DDTHH-MM-SS)",
													"patching_rect" : [ 173.0, 351.0, 150.0, 19.0 ],
													"id" : "obj-38",
													"fontname" : "Verdana",
													"numinlets" : 1,
													"numoutlets" : 0,
													"fontsize" : 10.0
												}

											}
, 											{
												"box" : 												{
													"maxclass" : "newobj",
													"text" : "zl join",
													"outlettype" : [ "", "" ],
													"patching_rect" : [ 90.0, 248.0, 41.0, 19.0 ],
													"id" : "obj-33",
													"fontname" : "Verdana",
													"numinlets" : 2,
													"numoutlets" : 2,
													"fontsize" : 10.0
												}

											}
, 											{
												"box" : 												{
													"maxclass" : "newobj",
													"text" : "sprintf %04d-%.2d-%.2dT%.2d-%.2d-%.2d",
													"outlettype" : [ "" ],
													"patching_rect" : [ 90.0, 325.0, 235.0, 19.0 ],
													"id" : "obj-3",
													"fontname" : "Verdana",
													"numinlets" : 6,
													"numoutlets" : 1,
													"fontsize" : 10.0
												}

											}
, 											{
												"box" : 												{
													"maxclass" : "message",
													"text" : "$3 $1 $2",
													"outlettype" : [ "" ],
													"patching_rect" : [ 90.0, 214.0, 56.0, 17.0 ],
													"id" : "obj-4",
													"fontname" : "Verdana",
													"numinlets" : 2,
													"numoutlets" : 1,
													"fontsize" : 10.0
												}

											}
, 											{
												"box" : 												{
													"maxclass" : "inlet",
													"outlettype" : [ "bang" ],
													"patching_rect" : [ 90.0, 41.0, 25.0, 25.0 ],
													"id" : "obj-10",
													"numinlets" : 0,
													"numoutlets" : 1,
													"comment" : ""
												}

											}
, 											{
												"box" : 												{
													"maxclass" : "outlet",
													"patching_rect" : [ 90.0, 365.0, 25.0, 25.0 ],
													"id" : "obj-11",
													"numinlets" : 1,
													"numoutlets" : 0,
													"comment" : "date&time string"
												}

											}
, 											{
												"box" : 												{
													"maxclass" : "message",
													"text" : "time, date",
													"outlettype" : [ "" ],
													"patching_rect" : [ 90.0, 161.0, 62.0, 17.0 ],
													"id" : "obj-15",
													"fontname" : "Verdana",
													"numinlets" : 2,
													"numoutlets" : 1,
													"fontsize" : 10.0
												}

											}
, 											{
												"box" : 												{
													"maxclass" : "newobj",
													"text" : "date",
													"outlettype" : [ "list", "list", "int" ],
													"patching_rect" : [ 90.0, 183.0, 62.0, 19.0 ],
													"id" : "obj-16",
													"fontname" : "Verdana",
													"numinlets" : 1,
													"numoutlets" : 3,
													"fontsize" : 10.0
												}

											}
 ],
										"lines" : [ 											{
												"patchline" : 												{
													"source" : [ "obj-15", 0 ],
													"destination" : [ "obj-16", 0 ],
													"hidden" : 0,
													"midpoints" : [  ]
												}

											}
, 											{
												"patchline" : 												{
													"source" : [ "obj-16", 1 ],
													"destination" : [ "obj-33", 1 ],
													"hidden" : 0,
													"midpoints" : [  ]
												}

											}
, 											{
												"patchline" : 												{
													"source" : [ "obj-16", 0 ],
													"destination" : [ "obj-4", 0 ],
													"hidden" : 0,
													"midpoints" : [  ]
												}

											}
, 											{
												"patchline" : 												{
													"source" : [ "obj-3", 0 ],
													"destination" : [ "obj-11", 0 ],
													"hidden" : 0,
													"midpoints" : [  ]
												}

											}
, 											{
												"patchline" : 												{
													"source" : [ "obj-4", 0 ],
													"destination" : [ "obj-33", 0 ],
													"hidden" : 0,
													"midpoints" : [  ]
												}

											}
, 											{
												"patchline" : 												{
													"source" : [ "obj-10", 0 ],
													"destination" : [ "obj-2", 0 ],
													"hidden" : 0,
													"midpoints" : [  ]
												}

											}
, 											{
												"patchline" : 												{
													"source" : [ "obj-2", 0 ],
													"destination" : [ "obj-15", 0 ],
													"hidden" : 0,
													"midpoints" : [  ]
												}

											}
, 											{
												"patchline" : 												{
													"source" : [ "obj-33", 0 ],
													"destination" : [ "obj-3", 0 ],
													"hidden" : 0,
													"midpoints" : [  ]
												}

											}
 ]
									}
,
									"saved_object_attributes" : 									{
										"default_fontface" : 0,
										"default_fontname" : "Arial",
										"fontname" : "Arial",
										"default_fontsize" : 12.0,
										"globalpatchername" : "",
										"fontface" : 0,
										"fontsize" : 12.0
									}

								}

							}
, 							{
								"box" : 								{
									"maxclass" : "newobj",
									"text" : "jit.matrix @adapt 1",
									"outlettype" : [ "jit_matrix", "" ],
									"patching_rect" : [ 50.5, 243.0, 109.0, 19.0 ],
									"id" : "obj-77",
									"fontname" : "Verdana",
									"numinlets" : 1,
									"numoutlets" : 2,
									"fontsize" : 10.0
								}

							}
, 							{
								"box" : 								{
									"maxclass" : "inlet",
									"outlettype" : [ "jit_matrix" ],
									"patching_rect" : [ 50.5, 40.0, 25.0, 25.0 ],
									"id" : "obj-17",
									"numinlets" : 0,
									"numoutlets" : 1,
									"comment" : ""
								}

							}
 ],
						"lines" : [ 							{
								"patchline" : 								{
									"source" : [ "obj-67", 0 ],
									"destination" : [ "obj-77", 0 ],
									"hidden" : 0,
									"midpoints" : [  ]
								}

							}
, 							{
								"patchline" : 								{
									"source" : [ "obj-67", 0 ],
									"destination" : [ "obj-60", 1 ],
									"hidden" : 0,
									"midpoints" : [ 60.0, 210.5, 161.0, 210.5 ]
								}

							}
, 							{
								"patchline" : 								{
									"source" : [ "obj-67", 0 ],
									"destination" : [ "obj-2", 0 ],
									"hidden" : 0,
									"midpoints" : [  ]
								}

							}
, 							{
								"patchline" : 								{
									"source" : [ "obj-17", 0 ],
									"destination" : [ "obj-1", 0 ],
									"hidden" : 0,
									"midpoints" : [  ]
								}

							}
, 							{
								"patchline" : 								{
									"source" : [ "obj-1", 1 ],
									"destination" : [ "obj-77", 0 ],
									"hidden" : 0,
									"midpoints" : [ 73.5, 128.0, 224.5, 128.0, 224.5, 228.0, 60.0, 228.0 ]
								}

							}
, 							{
								"patchline" : 								{
									"source" : [ "obj-1", 0 ],
									"destination" : [ "obj-76", 0 ],
									"hidden" : 0,
									"midpoints" : [  ]
								}

							}
, 							{
								"patchline" : 								{
									"source" : [ "obj-68", 0 ],
									"destination" : [ "obj-67", 0 ],
									"hidden" : 0,
									"midpoints" : [  ]
								}

							}
, 							{
								"patchline" : 								{
									"source" : [ "obj-76", 0 ],
									"destination" : [ "obj-68", 0 ],
									"hidden" : 0,
									"midpoints" : [  ]
								}

							}
 ]
					}
,
					"saved_object_attributes" : 					{
						"default_fontface" : 0,
						"default_fontname" : "Arial",
						"fontname" : "Arial",
						"default_fontsize" : 12.0,
						"globalpatchername" : "",
						"fontface" : 0,
						"fontsize" : 12.0
					}

				}

			}
, 			{
				"box" : 				{
					"maxclass" : "button",
					"outlettype" : [ "bang" ],
					"patching_rect" : [ 104.0, 63.0, 20.0, 20.0 ],
					"id" : "obj-47",
					"numinlets" : 1,
					"numoutlets" : 1
				}

			}
, 			{
				"box" : 				{
					"maxclass" : "newobj",
					"text" : "standalone",
					"patching_rect" : [ 488.0, 9.0, 67.0, 20.0 ],
					"id" : "obj-16",
					"fontname" : "Arial",
					"numinlets" : 1,
					"numoutlets" : 0,
					"fontsize" : 11.595187,
					"saved_object_attributes" : 					{
						"statusvisible" : 0,
						"allwindowsactive" : 0,
						"cantclosetoplevelpatchers" : 0,
						"overdrive" : 0,
						"preffilename" : "Max 5 Preferences",
						"usesearchpath" : 0,
						"midisupport" : 0,
						"searchformissingfiles" : 1,
						"noloadbangdefeating" : 0,
						"audiosupport" : 1,
						"extensions" : 1
					}

				}

			}
, 			{
				"box" : 				{
					"maxclass" : "jit.pwindow",
					"outlettype" : [ "", "" ],
					"patching_rect" : [ 34.0, 168.0, 320.0, 240.0 ],
					"presentation" : 1,
					"id" : "obj-96",
					"numinlets" : 1,
					"presentation_rect" : [ 190.0, 99.0, 480.0, 360.0 ],
					"numoutlets" : 2
				}

			}
, 			{
				"box" : 				{
					"maxclass" : "led",
					"outlettype" : [ "int" ],
					"patching_rect" : [ 129.5, 64.5, 17.0, 17.0 ],
					"presentation" : 1,
					"id" : "obj-10",
					"numinlets" : 1,
					"presentation_rect" : [ 441.710632, 67.0, 17.0, 17.0 ],
					"bgcolor" : [ 0.35294, 0.35294, 0.35294, 1.0 ],
					"numoutlets" : 1
				}

			}
, 			{
				"box" : 				{
					"maxclass" : "newobj",
					"text" : "p start-stop",
					"outlettype" : [ "bang", "open" ],
					"patching_rect" : [ 104.0, 32.0, 68.0, 20.0 ],
					"id" : "obj-58",
					"fontname" : "Arial",
					"numinlets" : 1,
					"numoutlets" : 2,
					"fontsize" : 11.595187,
					"patcher" : 					{
						"fileversion" : 1,
						"appversion" : 						{
							"major" : 5,
							"minor" : 1,
							"revision" : 9
						}
,
						"rect" : [ 658.0, 44.0, 223.0, 357.0 ],
						"bglocked" : 0,
						"defrect" : [ 658.0, 44.0, 223.0, 357.0 ],
						"openrect" : [ 0.0, 0.0, 0.0, 0.0 ],
						"openinpresentation" : 0,
						"default_fontsize" : 12.0,
						"default_fontface" : 0,
						"default_fontname" : "Arial",
						"gridonopen" : 0,
						"gridsize" : [ 15.0, 15.0 ],
						"gridsnaponopen" : 0,
						"toolbarvisible" : 1,
						"boxanimatetime" : 200,
						"imprint" : 0,
						"enablehscroll" : 1,
						"enablevscroll" : 1,
						"devicewidth" : 0.0,
						"boxes" : [ 							{
								"box" : 								{
									"maxclass" : "outlet",
									"patching_rect" : [ 121.0, 307.0, 25.0, 25.0 ],
									"id" : "obj-2",
									"numinlets" : 1,
									"numoutlets" : 0,
									"comment" : ""
								}

							}
, 							{
								"box" : 								{
									"maxclass" : "newobj",
									"text" : "sel 1 0",
									"outlettype" : [ "bang", "bang", "" ],
									"patching_rect" : [ 50.0, 88.0, 46.0, 20.0 ],
									"id" : "obj-55",
									"fontname" : "Arial",
									"numinlets" : 1,
									"numoutlets" : 3,
									"fontsize" : 12.0
								}

							}
, 							{
								"box" : 								{
									"maxclass" : "message",
									"text" : "stop",
									"outlettype" : [ "" ],
									"patching_rect" : [ 121.0, 128.0, 33.0, 18.0 ],
									"id" : "obj-1",
									"fontname" : "Arial",
									"numinlets" : 2,
									"numoutlets" : 1,
									"fontsize" : 12.0
								}

							}
, 							{
								"box" : 								{
									"maxclass" : "toggle",
									"outlettype" : [ "int" ],
									"patching_rect" : [ 50.0, 202.0, 20.0, 20.0 ],
									"id" : "obj-10",
									"numinlets" : 1,
									"numoutlets" : 1
								}

							}
, 							{
								"box" : 								{
									"maxclass" : "newobj",
									"text" : "t 0 close",
									"outlettype" : [ "int", "close" ],
									"patching_rect" : [ 121.0, 163.0, 55.0, 20.0 ],
									"id" : "obj-16",
									"fontname" : "Arial",
									"numinlets" : 1,
									"numoutlets" : 2,
									"fontsize" : 12.0
								}

							}
, 							{
								"box" : 								{
									"maxclass" : "message",
									"text" : "start",
									"outlettype" : [ "" ],
									"patching_rect" : [ 50.0, 128.0, 34.0, 18.0 ],
									"id" : "obj-47",
									"fontname" : "Arial",
									"numinlets" : 2,
									"numoutlets" : 1,
									"fontsize" : 12.0
								}

							}
, 							{
								"box" : 								{
									"maxclass" : "newobj",
									"text" : "metro 60000",
									"outlettype" : [ "bang" ],
									"patching_rect" : [ 50.0, 230.0, 78.0, 20.0 ],
									"id" : "obj-48",
									"fontname" : "Arial",
									"numinlets" : 2,
									"numoutlets" : 1,
									"fontsize" : 12.0
								}

							}
, 							{
								"box" : 								{
									"maxclass" : "newobj",
									"text" : "t 1 open",
									"outlettype" : [ "int", "open" ],
									"patching_rect" : [ 50.0, 163.0, 54.0, 20.0 ],
									"id" : "obj-53",
									"fontname" : "Arial",
									"numinlets" : 1,
									"numoutlets" : 2,
									"fontsize" : 12.0
								}

							}
, 							{
								"box" : 								{
									"maxclass" : "inlet",
									"outlettype" : [ "int" ],
									"patching_rect" : [ 50.0, 40.0, 25.0, 25.0 ],
									"id" : "obj-56",
									"numinlets" : 0,
									"numoutlets" : 1,
									"comment" : ""
								}

							}
, 							{
								"box" : 								{
									"maxclass" : "outlet",
									"patching_rect" : [ 50.0, 307.0, 25.0, 25.0 ],
									"id" : "obj-57",
									"numinlets" : 1,
									"numoutlets" : 0,
									"comment" : ""
								}

							}
 ],
						"lines" : [ 							{
								"patchline" : 								{
									"source" : [ "obj-47", 0 ],
									"destination" : [ "obj-53", 0 ],
									"hidden" : 0,
									"midpoints" : [  ]
								}

							}
, 							{
								"patchline" : 								{
									"source" : [ "obj-53", 0 ],
									"destination" : [ "obj-10", 0 ],
									"hidden" : 0,
									"midpoints" : [  ]
								}

							}
, 							{
								"patchline" : 								{
									"source" : [ "obj-53", 1 ],
									"destination" : [ "obj-2", 0 ],
									"hidden" : 0,
									"midpoints" : [ 138.0, 216.0, 138.0, 280.0, 130.5, 280.0 ]
								}

							}
, 							{
								"patchline" : 								{
									"source" : [ "obj-56", 0 ],
									"destination" : [ "obj-55", 0 ],
									"hidden" : 0,
									"midpoints" : [  ]
								}

							}
, 							{
								"patchline" : 								{
									"source" : [ "obj-55", 0 ],
									"destination" : [ "obj-47", 0 ],
									"hidden" : 0,
									"midpoints" : [  ]
								}

							}
, 							{
								"patchline" : 								{
									"source" : [ "obj-55", 1 ],
									"destination" : [ "obj-1", 0 ],
									"hidden" : 0,
									"midpoints" : [ 73.0, 117.5, 130.5, 117.5 ]
								}

							}
, 							{
								"patchline" : 								{
									"source" : [ "obj-48", 0 ],
									"destination" : [ "obj-57", 0 ],
									"hidden" : 0,
									"midpoints" : [  ]
								}

							}
, 							{
								"patchline" : 								{
									"source" : [ "obj-16", 1 ],
									"destination" : [ "obj-2", 0 ],
									"hidden" : 0,
									"midpoints" : [ 166.5, 288.5, 130.5, 288.5 ]
								}

							}
, 							{
								"patchline" : 								{
									"source" : [ "obj-16", 0 ],
									"destination" : [ "obj-10", 0 ],
									"hidden" : 0,
									"midpoints" : [ 130.5, 195.5, 59.5, 195.5 ]
								}

							}
, 							{
								"patchline" : 								{
									"source" : [ "obj-10", 0 ],
									"destination" : [ "obj-48", 0 ],
									"hidden" : 0,
									"midpoints" : [  ]
								}

							}
, 							{
								"patchline" : 								{
									"source" : [ "obj-1", 0 ],
									"destination" : [ "obj-16", 0 ],
									"hidden" : 0,
									"midpoints" : [  ]
								}

							}
 ]
					}
,
					"saved_object_attributes" : 					{
						"default_fontface" : 0,
						"default_fontname" : "Arial",
						"fontname" : "Arial",
						"default_fontsize" : 12.0,
						"globalpatchername" : "",
						"fontface" : 0,
						"fontsize" : 12.0
					}

				}

			}
, 			{
				"box" : 				{
					"maxclass" : "toggle",
					"outlettype" : [ "int" ],
					"patching_rect" : [ 104.0, 9.0, 20.0, 20.0 ],
					"presentation" : 1,
					"id" : "obj-54",
					"numinlets" : 1,
					"presentation_rect" : [ 65.0, 124.0, 97.0, 97.0 ],
					"numoutlets" : 1
				}

			}
, 			{
				"box" : 				{
					"maxclass" : "newobj",
					"text" : "s to-qtgrab",
					"patching_rect" : [ 791.0, 353.0, 68.0, 20.0 ],
					"id" : "obj-98",
					"fontname" : "Arial",
					"numinlets" : 1,
					"numoutlets" : 0,
					"fontsize" : 12.0
				}

			}
, 			{
				"box" : 				{
					"maxclass" : "newobj",
					"text" : "r from-qtgrab",
					"outlettype" : [ "" ],
					"patching_rect" : [ 622.0, 211.088074, 80.0, 20.0 ],
					"id" : "obj-27",
					"fontname" : "Arial",
					"numinlets" : 0,
					"numoutlets" : 1,
					"fontsize" : 12.0
				}

			}
, 			{
				"box" : 				{
					"maxclass" : "newobj",
					"text" : "s to-qtgrab",
					"patching_rect" : [ 622.0, 381.088074, 68.0, 20.0 ],
					"id" : "obj-11",
					"fontname" : "Arial",
					"numinlets" : 1,
					"numoutlets" : 0,
					"fontsize" : 12.0
				}

			}
, 			{
				"box" : 				{
					"maxclass" : "newobj",
					"text" : "loadbang",
					"outlettype" : [ "bang" ],
					"patching_rect" : [ 622.0, 92.0, 58.0, 20.0 ],
					"id" : "obj-110",
					"fontname" : "Arial",
					"numinlets" : 1,
					"numoutlets" : 1,
					"fontsize" : 11.595187
				}

			}
, 			{
				"box" : 				{
					"maxclass" : "newobj",
					"text" : "s to-qtgrab",
					"patching_rect" : [ 622.0, 169.165771, 66.0, 20.0 ],
					"id" : "obj-107",
					"fontname" : "Arial",
					"numinlets" : 1,
					"numoutlets" : 0,
					"fontsize" : 11.595187
				}

			}
, 			{
				"box" : 				{
					"maxclass" : "message",
					"text" : "getinputlist",
					"outlettype" : [ "" ],
					"patching_rect" : [ 622.0, 132.0, 66.0, 18.0 ],
					"id" : "obj-105",
					"fontname" : "Arial",
					"numinlets" : 2,
					"numoutlets" : 1,
					"fontsize" : 11.595187
				}

			}
, 			{
				"box" : 				{
					"maxclass" : "message",
					"text" : "getvdevlist",
					"outlettype" : [ "" ],
					"patching_rect" : [ 690.0, 132.0, 65.0, 18.0 ],
					"id" : "obj-106",
					"fontname" : "Arial",
					"numinlets" : 2,
					"numoutlets" : 1,
					"fontsize" : 11.595187
				}

			}
, 			{
				"box" : 				{
					"maxclass" : "newobj",
					"text" : "r to-qtgrab",
					"outlettype" : [ "" ],
					"patching_rect" : [ 13.0, 18.0, 64.0, 20.0 ],
					"id" : "obj-12",
					"fontname" : "Arial",
					"numinlets" : 0,
					"numoutlets" : 1,
					"fontsize" : 11.595187
				}

			}
, 			{
				"box" : 				{
					"maxclass" : "newobj",
					"text" : "t clear",
					"outlettype" : [ "clear" ],
					"patching_rect" : [ 717.0, 295.0, 40.0, 20.0 ],
					"id" : "obj-22",
					"fontname" : "Arial",
					"numinlets" : 1,
					"numoutlets" : 1,
					"fontsize" : 11.595187
				}

			}
, 			{
				"box" : 				{
					"maxclass" : "message",
					"text" : "input $1",
					"outlettype" : [ "" ],
					"patching_rect" : [ 622.0, 353.0, 50.0, 18.0 ],
					"id" : "obj-23",
					"fontname" : "Arial",
					"numinlets" : 2,
					"numoutlets" : 1,
					"fontsize" : 11.595187
				}

			}
, 			{
				"box" : 				{
					"maxclass" : "umenu",
					"outlettype" : [ "int", "", "" ],
					"patching_rect" : [ 622.0, 326.0, 145.0, 20.0 ],
					"presentation" : 1,
					"items" : [ "Logitech Camera", ",", "Built-in iSight" ],
					"types" : [  ],
					"id" : "obj-24",
					"fontname" : "Arial",
					"numinlets" : 1,
					"presentation_rect" : [ 281.0, 67.0, 145.0, 20.0 ],
					"numoutlets" : 3,
					"fontsize" : 11.595187
				}

			}
, 			{
				"box" : 				{
					"maxclass" : "newobj",
					"text" : "prepend append",
					"outlettype" : [ "" ],
					"patching_rect" : [ 622.0, 295.0, 93.0, 20.0 ],
					"id" : "obj-25",
					"fontname" : "Arial",
					"numinlets" : 1,
					"numoutlets" : 1,
					"fontsize" : 11.595187
				}

			}
, 			{
				"box" : 				{
					"maxclass" : "newobj",
					"text" : "iter",
					"outlettype" : [ "" ],
					"patching_rect" : [ 622.0, 266.0, 25.0, 20.0 ],
					"id" : "obj-26",
					"fontname" : "Arial",
					"numinlets" : 1,
					"numoutlets" : 1,
					"fontsize" : 11.595187
				}

			}
, 			{
				"box" : 				{
					"maxclass" : "newobj",
					"text" : "route inputlist",
					"outlettype" : [ "", "" ],
					"patching_rect" : [ 622.0, 236.0, 79.0, 20.0 ],
					"id" : "obj-31",
					"fontname" : "Arial",
					"numinlets" : 1,
					"numoutlets" : 2,
					"fontsize" : 11.595187
				}

			}
, 			{
				"box" : 				{
					"maxclass" : "jit.fpsgui",
					"outlettype" : [ "", "" ],
					"patching_rect" : [ 34.0, 414.0, 80.0, 35.0 ],
					"mode" : 3,
					"id" : "obj-46",
					"fontname" : "Arial",
					"numinlets" : 1,
					"numoutlets" : 2,
					"fontsize" : 11.595187
				}

			}
, 			{
				"box" : 				{
					"maxclass" : "message",
					"text" : "settings",
					"outlettype" : [ "" ],
					"patching_rect" : [ 791.0, 322.911926, 48.0, 18.0 ],
					"id" : "obj-69",
					"fontname" : "Arial",
					"numinlets" : 2,
					"numoutlets" : 1,
					"fontsize" : 11.595187
				}

			}
, 			{
				"box" : 				{
					"maxclass" : "newobj",
					"text" : "p grabber",
					"outlettype" : [ "jit_matrix" ],
					"patching_rect" : [ 34.0, 104.0, 60.0, 20.0 ],
					"id" : "obj-95",
					"fontname" : "Arial",
					"numinlets" : 1,
					"numoutlets" : 1,
					"fontsize" : 11.595187,
					"patcher" : 					{
						"fileversion" : 1,
						"appversion" : 						{
							"major" : 5,
							"minor" : 1,
							"revision" : 9
						}
,
						"rect" : [ 475.0, 100.0, 575.0, 433.0 ],
						"bglocked" : 0,
						"defrect" : [ 475.0, 100.0, 575.0, 433.0 ],
						"openrect" : [ 0.0, 0.0, 0.0, 0.0 ],
						"openinpresentation" : 0,
						"default_fontsize" : 12.0,
						"default_fontface" : 0,
						"default_fontname" : "Arial",
						"gridonopen" : 0,
						"gridsize" : [ 15.0, 15.0 ],
						"gridsnaponopen" : 0,
						"toolbarvisible" : 1,
						"boxanimatetime" : 200,
						"imprint" : 0,
						"enablehscroll" : 1,
						"enablevscroll" : 1,
						"devicewidth" : 0.0,
						"boxes" : [ 							{
								"box" : 								{
									"maxclass" : "newobj",
									"text" : "print",
									"patching_rect" : [ 246.0, 236.0, 33.0, 20.0 ],
									"id" : "obj-49",
									"fontname" : "Arial",
									"numinlets" : 1,
									"numoutlets" : 0,
									"fontsize" : 11.595187
								}

							}
, 							{
								"box" : 								{
									"maxclass" : "newobj",
									"text" : "s from-qtgrab",
									"patching_rect" : [ 289.0, 236.0, 79.0, 20.0 ],
									"id" : "obj-7",
									"fontname" : "Arial",
									"numinlets" : 1,
									"numoutlets" : 0,
									"fontsize" : 11.595187
								}

							}
, 							{
								"box" : 								{
									"maxclass" : "newobj",
									"text" : "delay 2000",
									"outlettype" : [ "bang" ],
									"patching_rect" : [ 376.0, 274.0, 69.0, 20.0 ],
									"id" : "obj-12",
									"fontname" : "Arial",
									"numinlets" : 2,
									"numoutlets" : 1,
									"fontsize" : 12.0
								}

							}
, 							{
								"box" : 								{
									"maxclass" : "message",
									"text" : "open 0 1",
									"outlettype" : [ "" ],
									"patching_rect" : [ 376.0, 197.0, 57.0, 18.0 ],
									"id" : "obj-11",
									"fontname" : "Arial",
									"numinlets" : 2,
									"numoutlets" : 1,
									"fontsize" : 12.0
								}

							}
, 							{
								"box" : 								{
									"maxclass" : "button",
									"outlettype" : [ "bang" ],
									"patching_rect" : [ 346.0, 114.0, 20.0, 20.0 ],
									"id" : "obj-8",
									"numinlets" : 1,
									"numoutlets" : 1
								}

							}
, 							{
								"box" : 								{
									"maxclass" : "newobj",
									"text" : "sel open",
									"outlettype" : [ "bang", "" ],
									"patching_rect" : [ 376.0, 235.0, 56.0, 20.0 ],
									"id" : "obj-5",
									"fontname" : "Arial",
									"numinlets" : 1,
									"numoutlets" : 2,
									"fontsize" : 12.0
								}

							}
, 							{
								"box" : 								{
									"maxclass" : "message",
									"text" : "open",
									"outlettype" : [ "" ],
									"patching_rect" : [ 139.0, 114.0, 38.0, 18.0 ],
									"id" : "obj-6",
									"fontname" : "Arial",
									"numinlets" : 2,
									"numoutlets" : 1,
									"fontsize" : 12.0
								}

							}
, 							{
								"box" : 								{
									"maxclass" : "message",
									"text" : "getinputlist",
									"outlettype" : [ "" ],
									"patching_rect" : [ 210.0, 114.0, 69.0, 18.0 ],
									"id" : "obj-61",
									"fontname" : "Arial",
									"numinlets" : 2,
									"numoutlets" : 1,
									"fontsize" : 12.0
								}

							}
, 							{
								"box" : 								{
									"maxclass" : "outlet",
									"patching_rect" : [ 75.0, 322.0, 25.0, 25.0 ],
									"id" : "obj-2",
									"numinlets" : 1,
									"numoutlets" : 0,
									"comment" : ""
								}

							}
, 							{
								"box" : 								{
									"maxclass" : "inlet",
									"outlettype" : [ "open" ],
									"patching_rect" : [ 75.0, 54.0, 25.0, 25.0 ],
									"id" : "obj-1",
									"numinlets" : 0,
									"numoutlets" : 1,
									"comment" : ""
								}

							}
, 							{
								"box" : 								{
									"maxclass" : "newobj",
									"varname" : "thru2",
									"text" : "p thru2",
									"outlettype" : [ "jit_matrix" ],
									"patching_rect" : [ 75.0, 249.0, 49.0, 20.0 ],
									"id" : "obj-10",
									"fontname" : "Arial",
									"numinlets" : 1,
									"numoutlets" : 1,
									"fontsize" : 12.0,
									"patcher" : 									{
										"fileversion" : 1,
										"appversion" : 										{
											"major" : 5,
											"minor" : 1,
											"revision" : 9
										}
,
										"rect" : [ 20.0, 74.0, 159.0, 173.0 ],
										"bglocked" : 0,
										"defrect" : [ 20.0, 74.0, 159.0, 173.0 ],
										"openrect" : [ 0.0, 0.0, 0.0, 0.0 ],
										"openinpresentation" : 0,
										"default_fontsize" : 10.0,
										"default_fontface" : 0,
										"default_fontname" : "Arial",
										"gridonopen" : 0,
										"gridsize" : [ 15.0, 15.0 ],
										"gridsnaponopen" : 0,
										"toolbarvisible" : 1,
										"boxanimatetime" : 200,
										"imprint" : 0,
										"enablehscroll" : 1,
										"enablevscroll" : 1,
										"devicewidth" : 0.0,
										"boxes" : [ 											{
												"box" : 												{
													"maxclass" : "outlet",
													"patching_rect" : [ 34.0, 68.0, 15.0, 15.0 ],
													"id" : "obj-1",
													"numinlets" : 1,
													"numoutlets" : 0,
													"comment" : ""
												}

											}
, 											{
												"box" : 												{
													"maxclass" : "inlet",
													"outlettype" : [ "jit_matrix" ],
													"patching_rect" : [ 34.0, 39.0, 15.0, 15.0 ],
													"id" : "obj-2",
													"numinlets" : 0,
													"numoutlets" : 1,
													"comment" : ""
												}

											}
 ],
										"lines" : [ 											{
												"patchline" : 												{
													"source" : [ "obj-2", 0 ],
													"destination" : [ "obj-1", 0 ],
													"hidden" : 0,
													"midpoints" : [  ]
												}

											}
 ]
									}
,
									"saved_object_attributes" : 									{
										"default_fontface" : 0,
										"default_fontname" : "Arial",
										"fontname" : "Arial",
										"default_fontsize" : 10.0,
										"globalpatchername" : "",
										"fontface" : 0,
										"fontsize" : 10.0
									}

								}

							}
, 							{
								"box" : 								{
									"maxclass" : "newobj",
									"varname" : "thru1",
									"text" : "p thru1",
									"outlettype" : [ "open" ],
									"patching_rect" : [ 75.0, 114.0, 54.0, 20.0 ],
									"id" : "obj-30",
									"fontname" : "Arial",
									"numinlets" : 1,
									"numoutlets" : 1,
									"fontsize" : 12.0,
									"patcher" : 									{
										"fileversion" : 1,
										"appversion" : 										{
											"major" : 5,
											"minor" : 1,
											"revision" : 9
										}
,
										"rect" : [ 20.0, 74.0, 159.0, 173.0 ],
										"bglocked" : 0,
										"defrect" : [ 20.0, 74.0, 159.0, 173.0 ],
										"openrect" : [ 0.0, 0.0, 0.0, 0.0 ],
										"openinpresentation" : 0,
										"default_fontsize" : 10.0,
										"default_fontface" : 0,
										"default_fontname" : "Arial",
										"gridonopen" : 0,
										"gridsize" : [ 15.0, 15.0 ],
										"gridsnaponopen" : 0,
										"toolbarvisible" : 1,
										"boxanimatetime" : 200,
										"imprint" : 0,
										"enablehscroll" : 1,
										"enablevscroll" : 1,
										"devicewidth" : 0.0,
										"boxes" : [ 											{
												"box" : 												{
													"maxclass" : "outlet",
													"patching_rect" : [ 34.0, 68.0, 15.0, 15.0 ],
													"id" : "obj-1",
													"numinlets" : 1,
													"numoutlets" : 0,
													"comment" : ""
												}

											}
, 											{
												"box" : 												{
													"maxclass" : "inlet",
													"outlettype" : [ "open" ],
													"patching_rect" : [ 34.0, 39.0, 15.0, 15.0 ],
													"id" : "obj-2",
													"numinlets" : 0,
													"numoutlets" : 1,
													"comment" : ""
												}

											}
 ],
										"lines" : [ 											{
												"patchline" : 												{
													"source" : [ "obj-2", 0 ],
													"destination" : [ "obj-1", 0 ],
													"hidden" : 0,
													"midpoints" : [  ]
												}

											}
 ]
									}
,
									"saved_object_attributes" : 									{
										"default_fontface" : 0,
										"default_fontname" : "Arial",
										"fontname" : "Arial",
										"default_fontsize" : 10.0,
										"globalpatchername" : "",
										"fontface" : 0,
										"fontsize" : 10.0
									}

								}

							}
, 							{
								"box" : 								{
									"maxclass" : "newobj",
									"varname" : "grabber",
									"text" : "jit.qt.grab 1600 1200 @unique 1 @input 0",
									"outlettype" : [ "jit_matrix", "" ],
									"patching_rect" : [ 75.0, 168.0, 233.0, 20.0 ],
									"id" : "obj-4",
									"fontname" : "Arial",
									"numinlets" : 1,
									"numoutlets" : 2,
									"fontsize" : 12.0
								}

							}
 ],
						"lines" : [ 							{
								"patchline" : 								{
									"source" : [ "obj-4", 1 ],
									"destination" : [ "obj-7", 0 ],
									"hidden" : 0,
									"midpoints" : [  ]
								}

							}
, 							{
								"patchline" : 								{
									"source" : [ "obj-4", 1 ],
									"destination" : [ "obj-49", 0 ],
									"hidden" : 0,
									"midpoints" : [  ]
								}

							}
, 							{
								"patchline" : 								{
									"source" : [ "obj-5", 0 ],
									"destination" : [ "obj-8", 0 ],
									"hidden" : 0,
									"midpoints" : [ 385.5, 264.0, 487.0, 264.0, 487.0, 107.0, 378.0, 107.0, 378.0, 111.0, 355.5, 111.0 ]
								}

							}
, 							{
								"patchline" : 								{
									"source" : [ "obj-8", 0 ],
									"destination" : [ "obj-4", 0 ],
									"hidden" : 0,
									"midpoints" : [ 355.5, 150.5, 84.5, 150.5 ]
								}

							}
, 							{
								"patchline" : 								{
									"source" : [ "obj-4", 1 ],
									"destination" : [ "obj-5", 0 ],
									"hidden" : 0,
									"midpoints" : [  ]
								}

							}
, 							{
								"patchline" : 								{
									"source" : [ "obj-61", 0 ],
									"destination" : [ "obj-4", 0 ],
									"hidden" : 0,
									"midpoints" : [ 219.5, 150.0, 84.5, 150.0 ]
								}

							}
, 							{
								"patchline" : 								{
									"source" : [ "obj-6", 0 ],
									"destination" : [ "obj-4", 0 ],
									"hidden" : 0,
									"midpoints" : [ 148.5, 149.5, 84.5, 149.5 ]
								}

							}
, 							{
								"patchline" : 								{
									"source" : [ "obj-4", 0 ],
									"destination" : [ "obj-10", 0 ],
									"hidden" : 0,
									"midpoints" : [  ]
								}

							}
, 							{
								"patchline" : 								{
									"source" : [ "obj-30", 0 ],
									"destination" : [ "obj-4", 0 ],
									"hidden" : 0,
									"midpoints" : [  ]
								}

							}
, 							{
								"patchline" : 								{
									"source" : [ "obj-10", 0 ],
									"destination" : [ "obj-2", 0 ],
									"hidden" : 0,
									"midpoints" : [  ]
								}

							}
, 							{
								"patchline" : 								{
									"source" : [ "obj-1", 0 ],
									"destination" : [ "obj-30", 0 ],
									"hidden" : 0,
									"midpoints" : [  ]
								}

							}
, 							{
								"patchline" : 								{
									"source" : [ "obj-11", 0 ],
									"destination" : [ "obj-5", 0 ],
									"hidden" : 0,
									"midpoints" : [  ]
								}

							}
, 							{
								"patchline" : 								{
									"source" : [ "obj-12", 0 ],
									"destination" : [ "obj-8", 0 ],
									"hidden" : 0,
									"midpoints" : [ 385.5, 306.0, 493.0, 306.0, 493.0, 101.0, 378.0, 101.0, 378.0, 111.0, 355.5, 111.0 ]
								}

							}
, 							{
								"patchline" : 								{
									"source" : [ "obj-5", 0 ],
									"destination" : [ "obj-12", 0 ],
									"hidden" : 0,
									"midpoints" : [  ]
								}

							}
 ]
					}
,
					"saved_object_attributes" : 					{
						"default_fontface" : 0,
						"default_fontname" : "Arial",
						"fontname" : "Arial",
						"default_fontsize" : 12.0,
						"globalpatchername" : "",
						"fontface" : 0,
						"fontsize" : 12.0
					}

				}

			}
, 			{
				"box" : 				{
					"maxclass" : "panel",
					"patching_rect" : [ 812.0, 132.0, 51.0, 44.0 ],
					"presentation" : 1,
					"id" : "obj-2",
					"numinlets" : 1,
					"presentation_rect" : [ 181.0, 46.0, 503.0, 430.0 ],
					"numoutlets" : 0
				}

			}
 ],
		"lines" : [ 			{
				"patchline" : 				{
					"source" : [ "obj-31", 0 ],
					"destination" : [ "obj-22", 0 ],
					"hidden" : 0,
					"midpoints" : [  ]
				}

			}
, 			{
				"patchline" : 				{
					"source" : [ "obj-31", 0 ],
					"destination" : [ "obj-26", 0 ],
					"hidden" : 0,
					"midpoints" : [  ]
				}

			}
, 			{
				"patchline" : 				{
					"source" : [ "obj-27", 0 ],
					"destination" : [ "obj-31", 0 ],
					"hidden" : 0,
					"midpoints" : [  ]
				}

			}
, 			{
				"patchline" : 				{
					"source" : [ "obj-96", 0 ],
					"destination" : [ "obj-46", 0 ],
					"hidden" : 0,
					"midpoints" : [  ]
				}

			}
, 			{
				"patchline" : 				{
					"source" : [ "obj-95", 0 ],
					"destination" : [ "obj-96", 0 ],
					"hidden" : 0,
					"midpoints" : [  ]
				}

			}
, 			{
				"patchline" : 				{
					"source" : [ "obj-95", 0 ],
					"destination" : [ "obj-18", 0 ],
					"hidden" : 0,
					"midpoints" : [  ]
				}

			}
, 			{
				"patchline" : 				{
					"source" : [ "obj-69", 0 ],
					"destination" : [ "obj-98", 0 ],
					"hidden" : 0,
					"midpoints" : [  ]
				}

			}
, 			{
				"patchline" : 				{
					"source" : [ "obj-58", 1 ],
					"destination" : [ "obj-95", 0 ],
					"hidden" : 0,
					"midpoints" : [  ]
				}

			}
, 			{
				"patchline" : 				{
					"source" : [ "obj-58", 0 ],
					"destination" : [ "obj-47", 0 ],
					"hidden" : 0,
					"midpoints" : [  ]
				}

			}
, 			{
				"patchline" : 				{
					"source" : [ "obj-58", 0 ],
					"destination" : [ "obj-10", 0 ],
					"hidden" : 0,
					"midpoints" : [  ]
				}

			}
, 			{
				"patchline" : 				{
					"source" : [ "obj-54", 0 ],
					"destination" : [ "obj-58", 0 ],
					"hidden" : 0,
					"midpoints" : [  ]
				}

			}
, 			{
				"patchline" : 				{
					"source" : [ "obj-47", 0 ],
					"destination" : [ "obj-95", 0 ],
					"hidden" : 0,
					"midpoints" : [  ]
				}

			}
, 			{
				"patchline" : 				{
					"source" : [ "obj-26", 0 ],
					"destination" : [ "obj-25", 0 ],
					"hidden" : 0,
					"midpoints" : [  ]
				}

			}
, 			{
				"patchline" : 				{
					"source" : [ "obj-25", 0 ],
					"destination" : [ "obj-24", 0 ],
					"hidden" : 0,
					"midpoints" : [  ]
				}

			}
, 			{
				"patchline" : 				{
					"source" : [ "obj-24", 0 ],
					"destination" : [ "obj-23", 0 ],
					"hidden" : 0,
					"midpoints" : [  ]
				}

			}
, 			{
				"patchline" : 				{
					"source" : [ "obj-23", 0 ],
					"destination" : [ "obj-11", 0 ],
					"hidden" : 0,
					"midpoints" : [ 631.5, 379.044067, 631.5, 379.044067 ]
				}

			}
, 			{
				"patchline" : 				{
					"source" : [ "obj-22", 0 ],
					"destination" : [ "obj-24", 0 ],
					"hidden" : 0,
					"midpoints" : [ 726.5, 322.0, 631.5, 322.0 ]
				}

			}
, 			{
				"patchline" : 				{
					"source" : [ "obj-18", 0 ],
					"destination" : [ "obj-21", 1 ],
					"hidden" : 0,
					"midpoints" : [ 71.5, 164.0, 151.0, 164.0, 151.0, 92.0, 229.0, 92.0, 229.0, 68.0, 439.0, 68.0 ]
				}

			}
, 			{
				"patchline" : 				{
					"source" : [ "obj-12", 0 ],
					"destination" : [ "obj-95", 0 ],
					"hidden" : 0,
					"midpoints" : [ 22.5, 95.0, 43.5, 95.0 ]
				}

			}
, 			{
				"patchline" : 				{
					"source" : [ "obj-110", 0 ],
					"destination" : [ "obj-106", 0 ],
					"hidden" : 0,
					"midpoints" : [ 631.5, 121.0, 699.5, 121.0 ]
				}

			}
, 			{
				"patchline" : 				{
					"source" : [ "obj-110", 0 ],
					"destination" : [ "obj-105", 0 ],
					"hidden" : 0,
					"midpoints" : [  ]
				}

			}
, 			{
				"patchline" : 				{
					"source" : [ "obj-106", 0 ],
					"destination" : [ "obj-107", 0 ],
					"hidden" : 0,
					"midpoints" : [ 699.5, 159.082886, 631.5, 159.082886 ]
				}

			}
, 			{
				"patchline" : 				{
					"source" : [ "obj-105", 0 ],
					"destination" : [ "obj-107", 0 ],
					"hidden" : 0,
					"midpoints" : [ 631.5, 159.082886, 631.5, 159.082886 ]
				}

			}
 ]
	}

}
